<svg width="98" height="97" viewBox="0 0 98 97" fill="none" xmlns="http://www.w3.org/2000/svg">
<ellipse cx="49" cy="48.5" rx="49" ry="48.5" fill="white"/>
<path d="M60 41V55C60 60.6 58.625 62 53.125 62H44.875C39.375 62 38 60.6 38 55V41C38 35.4 39.375 34 44.875 34H53.125C58.625 34 60 35.4 60 41Z" stroke="#407BFF" stroke-width="1.5" stroke-linecap="round" stroke-linejoin="round"/>
<path d="M52 39H46" stroke="#407BFF" stroke-width="1.5" stroke-linecap="round" stroke-linejoin="round"/>
<path d="M49 58C50.1046 58 51 57.1046 51 56C51 54.8954 50.1046 54 49 54C47.8954 54 47 54.8954 47 56C47 57.1046 47.8954 58 49 58Z" stroke="#407BFF" stroke-width="1.5" stroke-linecap="round" stroke-linejoin="round"/>
</svg>
