<svg width="317" height="234" viewBox="0 0 327 244" fill="none" xmlns="http://www.w3.org/2000/svg">
<path d="M294.235 224.676H272.573V224.84H294.235V224.676Z" fill="#EBEBEB"/>
<path d="M216.618 226.451H210.933V226.615H216.618V226.451Z" fill="#EBEBEB"/>
<path d="M271.919 218.603H259.367V218.767H271.919V218.603Z" fill="#EBEBEB"/>
<path d="M62.5563 219.702H34.3081V219.866H62.5563V219.702Z" fill="#EBEBEB"/>
<path d="M72.5214 219.702H68.3796V219.866H72.5214V219.702Z" fill="#EBEBEB"/>
<path d="M147.246 222.464H85.9819V222.627H147.246V222.464Z" fill="#EBEBEB"/>
<path d="M155.914 184.983H29.6276C27.5694 184.983 25.8945 183.308 25.8945 181.25V3.73303C25.8945 1.67489 27.5694 0 29.6276 0H155.914C157.972 0 159.647 1.67489 159.647 3.73303V181.25C159.647 183.308 157.972 184.983 155.914 184.983ZM29.6276 0.164154C27.659 0.164154 26.058 1.76515 26.058 3.73369V181.25C26.058 183.219 27.659 184.82 29.6276 184.82H155.914C157.882 184.82 159.483 183.219 159.483 181.25V3.73303C159.483 1.76515 157.882 0.1635 155.914 0.1635L29.6276 0.164154Z" fill="#EBEBEB"/>
<path d="M297.373 184.983H171.086C169.028 184.983 167.354 183.308 167.354 181.25V3.73303C167.354 1.67489 169.028 0 171.086 0H297.373C299.431 0 301.106 1.67489 301.106 3.73303V181.25C301.106 183.308 299.431 184.983 297.373 184.983ZM171.086 0.164154C169.118 0.164154 167.517 1.76515 167.517 3.73369V181.25C167.517 183.219 169.118 184.82 171.086 184.82H297.373C299.341 184.82 300.942 183.219 300.942 181.25V3.73303C300.942 1.76515 299.341 0.1635 297.373 0.1635L171.086 0.164154Z" fill="#EBEBEB"/>
<path d="M327 214.15H0V214.313H327V214.15Z" fill="#EBEBEB"/>
<path d="M78.0424 169.908C77.4898 163.592 71.042 161.227 63.4013 161.896C55.7613 162.564 49.8217 166.013 50.3743 172.329L78.0424 169.908Z" fill="#F0F0F0"/>
<path d="M63.1489 159.009C66.6949 158.699 67.8269 155.704 67.5163 152.158C67.2063 148.612 65.5713 145.858 62.0253 146.169C58.4793 146.479 57.3473 149.474 57.6579 153.02C57.9679 156.566 59.6029 159.32 63.1489 159.009Z" fill="#F0F0F0"/>
<path d="M222.425 35.3284C222.597 37.2839 221.15 39.0078 219.195 39.1785C217.239 39.3499 215.515 37.9032 215.345 35.9477C215.173 33.9923 216.62 32.2683 218.575 32.097C220.531 31.9263 222.255 33.3729 222.425 35.3284Z" fill="#F5F5F5"/>
<path d="M242.093 33.6078C242.264 35.5632 240.818 37.2872 238.862 37.4579C236.907 37.6292 235.183 36.1826 235.012 34.2271C234.84 32.2716 236.287 30.5477 238.242 30.3763C240.198 30.2057 241.922 31.6523 242.093 33.6078Z" fill="#F5F5F5"/>
<path d="M261.761 31.8871C261.932 33.8425 260.486 35.5665 258.53 35.7378C256.575 35.9092 254.851 34.4625 254.679 32.5071C254.508 30.5516 255.955 28.8277 257.91 28.6563C259.866 28.485 261.589 29.9316 261.761 31.8871Z" fill="#F5F5F5"/>
<path d="M224.18 55.3755C224.351 57.3309 222.904 59.0549 220.949 59.2262C218.993 59.3976 217.269 57.9509 217.098 55.9955C216.927 54.04 218.373 52.3161 220.329 52.1454C222.285 51.9734 224.009 53.4194 224.18 55.3755Z" fill="#F5F5F5"/>
<path d="M243.847 53.6541C244.019 55.6096 242.572 57.3335 240.616 57.5049C238.661 57.6762 236.937 56.2296 236.766 54.2741C236.594 52.3187 238.041 50.5947 239.996 50.4234C241.952 50.2527 243.676 51.6993 243.847 53.6541Z" fill="#F5F5F5"/>
<path d="M263.515 51.9335C263.686 53.8889 262.24 55.6129 260.284 55.7836C258.329 55.9549 256.605 54.5083 256.433 52.5528C256.262 50.5973 257.709 48.8734 259.664 48.7021C261.62 48.532 263.344 49.9787 263.515 51.9335Z" fill="#F5F5F5"/>
<path d="M225.934 75.4219C226.105 77.3774 224.658 79.1013 222.703 79.2727C220.747 79.444 219.023 77.9974 218.853 76.0419C218.681 74.0864 220.128 72.3625 222.083 72.1911C224.038 72.0198 225.762 73.4664 225.934 75.4219Z" fill="#F5F5F5"/>
<path d="M245.601 73.7012C245.772 75.6567 244.326 77.3806 242.37 77.552C240.415 77.7233 238.691 76.2767 238.52 74.3212C238.348 72.3657 239.795 70.6418 241.75 70.4711C243.706 70.2991 245.43 71.7457 245.601 73.7012Z" fill="#F5F5F5"/>
<path d="M265.268 71.9806C265.44 73.936 263.993 75.66 262.038 75.8307C260.082 76.0014 258.358 74.5554 258.187 72.5999C258.016 70.6444 259.462 68.9205 261.418 68.7498C263.374 68.5785 265.098 70.0251 265.268 71.9806Z" fill="#F5F5F5"/>
<path d="M261.019 73.1349L220.611 76.6704L256.439 33.1356L219.73 36.3473C219.301 36.3846 218.923 36.0674 218.885 35.6384C218.848 35.2094 219.165 34.8314 219.594 34.7941L260.002 31.2586L224.175 74.7934L260.884 71.5816C261.313 71.5443 261.691 71.8615 261.728 72.2899C261.765 72.7189 261.448 73.0976 261.019 73.1349Z" fill="#E6E6E6"/>
<path d="M261.639 150.848C261.505 150.463 261.161 150.177 260.754 150.15C258.9 150.026 257.335 149.332 256.095 148.088C254.479 146.465 253.529 143.996 253.375 141.064C253.347 140.518 252.889 140.092 252.342 140.089C251.736 140.085 251.254 140.596 251.286 141.201C251.473 144.639 252.636 147.58 254.612 149.565C256.156 151.116 258.148 152.024 260.417 152.222C260.456 152.226 260.507 152.23 260.566 152.235C261.319 152.294 261.886 151.561 261.639 150.848Z" fill="#F0F0F0"/>
<path d="M259.549 163.401C250.881 162.642 244.631 156.734 242.652 147.516C242.526 146.928 242.901 146.349 243.493 146.246C244.041 146.151 244.576 146.498 244.692 147.041C246.464 155.332 252.028 160.641 259.731 161.316C268.179 162.055 277.252 156.497 278.877 142.486C278.943 141.918 279.438 141.499 280.007 141.548C280.59 141.6 281.026 142.119 280.958 142.7C279.401 155.91 270.715 164.378 259.549 163.401Z" fill="#F0F0F0"/>
<path d="M243.196 138.328C242.614 138.277 242.177 137.757 242.245 137.176C243.803 123.965 252.49 115.498 263.655 116.475C273.438 117.331 280.034 124.655 281.062 135.688C281.116 136.271 280.664 136.778 280.08 136.813H280.078C279.508 136.847 279.028 136.417 278.973 135.849C278.03 125.909 272.16 119.32 263.472 118.56C255.024 117.821 245.951 123.378 244.326 137.39C244.26 137.958 243.765 138.377 243.196 138.328Z" fill="#F0F0F0"/>
<path d="M259.975 157.797C258.363 157.656 256.852 157.28 255.465 156.674C254.9 156.427 254.668 155.747 254.963 155.207C255.22 154.735 255.793 154.531 256.284 154.748C257.588 155.32 259.03 155.657 260.583 155.742C266.99 156.109 273.753 151.571 274.415 140.606C274.823 133.853 272.51 128.398 268.191 125.789C267.728 125.509 267.556 124.924 267.795 124.439C268.066 123.887 268.754 123.684 269.28 124.001C274.278 127.019 276.962 133.175 276.505 140.732C275.866 151.306 269.269 158.337 260.463 157.833C260.3 157.823 260.136 157.811 259.975 157.797Z" fill="#F0F0F0"/>
<path d="M250.656 151.274C250.15 151.62 249.458 151.459 249.15 150.928C247.296 147.72 246.429 143.585 246.698 139.144C247.309 129.03 253.373 122.155 261.608 122.02C262.219 122.01 262.712 122.521 262.678 123.131V123.134C262.646 123.677 262.204 124.105 261.659 124.116C255.553 124.236 249.418 128.852 248.788 139.27C248.543 143.314 249.317 147.047 250.976 149.901C251.248 150.37 251.104 150.968 250.656 151.274Z" fill="#F0F0F0"/>
<path d="M264.955 150.419C264.742 149.934 264.928 149.374 265.382 149.101C268.132 147.445 269.821 143.97 269.85 139.781C269.873 136.425 268.899 133.587 267.108 131.788C265.727 130.4 263.941 129.702 261.8 129.706C258.576 129.714 255.965 131.481 254.519 134.589C254.291 135.078 253.725 135.31 253.218 135.124C252.642 134.912 252.368 134.248 252.628 133.692C254.417 129.873 257.774 127.623 261.794 127.612C264.475 127.608 266.826 128.538 268.591 130.311C270.78 132.508 271.97 135.876 271.943 139.794C271.91 144.738 269.827 148.882 266.436 150.91C265.902 151.229 265.206 150.988 264.955 150.419Z" fill="#F0F0F0"/>
<path d="M257.42 142.73C256.826 142.968 256.161 142.623 256.008 142C255.939 141.717 255.881 141.426 255.836 141.125C255.244 137.212 257.348 133.804 260.73 133.2C262.476 132.886 264.032 133.297 265.222 134.359C265.704 134.791 265.667 135.561 265.141 135.938L265.075 135.984C264.679 136.268 264.156 136.204 263.787 135.886C263.077 135.277 262.176 135.067 261.098 135.26C258.521 135.721 257.541 138.402 257.906 140.812C257.941 141.047 257.986 141.275 258.04 141.493C258.164 142.006 257.91 142.532 257.42 142.73Z" fill="#F0F0F0"/>
<path d="M260.879 146.756C260.876 146.756 260.873 146.756 260.87 146.756C260.149 146.692 259.75 145.883 260.135 145.269L260.224 145.127C260.417 144.82 260.761 144.65 261.124 144.676C261.434 144.697 261.762 144.677 262.105 144.616C264.356 144.213 265.389 142.118 265.371 139.988C265.366 139.456 265.734 138.997 266.26 138.918C266.874 138.825 267.454 139.282 267.466 139.903C267.528 143.316 265.519 146.132 262.474 146.677C261.924 146.775 261.39 146.801 260.879 146.756Z" fill="#F0F0F0"/>
<path d="M261.344 142.892C260.229 142.795 259.399 142.044 259.097 140.972C258.922 140.351 259.444 139.749 260.086 139.806L260.326 139.827C260.699 139.859 261.006 140.114 261.13 140.467C261.191 140.64 261.308 140.788 261.525 140.807C262.028 140.851 262.117 140.129 262.13 139.984C262.139 139.881 262.16 139.48 261.989 139.244C261.821 139.012 261.706 138.747 261.731 138.462C261.812 137.532 262.988 137.158 263.582 137.88C264.053 138.454 264.295 139.258 264.215 140.167C264.066 141.878 262.858 143.025 261.344 142.892Z" fill="#F0F0F0"/>
<path d="M241.675 119.486C241.099 119.436 240.673 118.929 240.724 118.352L241.517 109.284L250.585 110.077C251.161 110.128 251.587 110.635 251.537 111.211C251.486 111.788 250.979 112.213 250.403 112.163L243.42 111.552L242.809 118.535C242.759 119.111 242.251 119.537 241.675 119.486Z" fill="#F0F0F0"/>
<path d="M284.792 123.259C284.216 123.208 283.79 122.701 283.84 122.125L284.451 115.142L277.469 114.531C276.892 114.481 276.467 113.973 276.517 113.397C276.567 112.821 277.075 112.395 277.651 112.446L286.719 113.239L285.926 122.307C285.876 122.883 285.368 123.309 284.792 123.259Z" fill="#F0F0F0"/>
<path d="M281.578 172.014L272.509 171.22C271.933 171.17 271.507 170.663 271.558 170.086C271.608 169.51 272.116 169.084 272.692 169.135L279.675 169.746L280.285 162.763C280.336 162.187 280.843 161.761 281.419 161.811C281.996 161.862 282.421 162.369 282.371 162.945L281.578 172.014Z" fill="#F0F0F0"/>
<path d="M245.443 168.852L236.375 168.059L237.168 158.991C237.218 158.414 237.726 157.989 238.302 158.039C238.878 158.089 239.304 158.597 239.253 159.173L238.643 166.156L245.625 166.767C246.202 166.817 246.627 167.325 246.577 167.901C246.527 168.477 246.019 168.903 245.443 168.852Z" fill="#F0F0F0"/>
<path d="M48.8735 149.226C48.5197 149.257 48.2071 148.995 48.1764 148.641L47.6885 143.065L53.2638 142.577C53.6183 142.547 53.9303 142.808 53.961 143.163C53.9917 143.516 53.7301 143.829 53.3757 143.86L49.0822 144.235L49.4575 148.529C49.4896 148.883 49.2273 149.195 48.8735 149.226Z" fill="#E0E0E0"/>
<path d="M75.384 146.907C75.0302 146.937 74.7176 146.676 74.6869 146.321L74.3115 142.028L70.018 142.403C69.6642 142.434 69.3516 142.172 69.3208 141.818C69.2901 141.464 69.5517 141.152 69.9061 141.121L75.4815 140.633L75.9694 146.208C76.0001 146.563 75.7385 146.876 75.384 146.907Z" fill="#E0E0E0"/>
<path d="M78.1307 170.915L72.5553 171.403C72.2015 171.434 71.8889 171.172 71.8582 170.818C71.8274 170.464 72.089 170.151 72.4435 170.12L76.737 169.745L76.3616 165.452C76.3309 165.097 76.5925 164.785 76.9469 164.754C77.3008 164.724 77.6134 164.985 77.6441 165.34L78.1307 170.915Z" fill="#E0E0E0"/>
<path d="M55.9131 172.859L50.3378 173.347L49.8499 167.771C49.8191 167.417 50.0807 167.104 50.4352 167.073C50.789 167.043 51.1016 167.304 51.1324 167.659L51.5078 171.952L55.8013 171.577C56.1551 171.546 56.4677 171.808 56.4984 172.162C56.5292 172.515 56.2669 172.827 55.9131 172.859Z" fill="#E0E0E0"/>
<path d="M74.9373 56.2414L53.5966 58.1086L53.1597 53.1146C52.7065 47.9336 56.5527 43.3504 61.733 42.8972C66.914 42.444 71.4972 46.2901 71.9504 51.4705L72.2042 54.3723L75.2832 54.1028L75.0295 51.201C74.4278 44.3223 68.3423 39.2165 61.4635 39.8182C54.5848 40.4198 49.479 46.5053 50.0807 53.3841L50.5202 58.4068C48.0369 58.8908 46.2692 61.1811 46.4941 63.7572L48.0186 81.1817C48.2599 83.937 50.6889 85.9749 53.4442 85.7342L77.3348 83.644C80.0901 83.4033 82.128 80.9744 81.8873 78.2191L80.3628 60.7946C80.1215 58.0386 77.6926 56.0001 74.9373 56.2414ZM65.8722 69.668L66.3973 75.6678C66.4836 76.6527 65.7551 77.5206 64.7702 77.6069C63.7852 77.6933 62.9174 76.9647 62.8311 75.9798L62.3059 69.98C61.5224 69.4973 60.9632 68.6713 60.8769 67.6838C60.7317 66.0259 61.9586 64.5642 63.6165 64.419C65.2744 64.2738 66.7361 65.5007 66.8813 67.1586C66.967 68.1455 66.5595 69.0565 65.8722 69.668Z" fill="#EBEBEB"/>
<path d="M111.471 66.3424L109.313 62.8252C108.145 62.9867 107.189 62.9867 106.02 62.8252L103.862 66.3424L103.448 66.2325C102.058 65.863 100.717 65.3058 99.4622 64.5779L99.0914 64.3627L100.006 60.5447C100.08 60.2353 100.391 60.045 100.7 60.1189C101.01 60.1928 101.2 60.5035 101.125 60.8128L100.411 63.7911C101.343 64.2987 102.323 64.7054 103.333 65.005L105.44 61.5688L105.821 61.631C107.043 61.8305 108.289 61.8305 109.511 61.631L109.892 61.5688L111.999 65.005C113.009 64.7048 113.989 64.2987 114.921 63.7911L113.983 59.877L114.297 59.652C115.152 59.0372 115.915 58.3106 116.57 57.4885C116.764 57.2439 117.11 57.1864 117.363 57.3689C117.626 57.5579 117.687 57.9307 117.486 58.1844C116.843 58.9967 116.104 59.7239 115.281 60.3544L116.242 64.3627L115.872 64.5779C114.617 65.3058 113.276 65.863 111.886 66.2325L111.471 66.3424ZM98.2471 58.6638C98.0659 58.4565 97.8906 58.2433 97.7226 58.0242L93.7135 58.9842L93.4984 58.6141C92.7705 57.3597 92.2133 56.0184 91.8438 54.628L91.7339 54.214L95.2511 52.0564C95.17 51.4704 95.1308 50.9289 95.1308 50.4097C95.1308 49.891 95.1707 49.3489 95.2511 48.7629L91.7339 46.606L91.8438 46.192C92.2133 44.8016 92.7705 43.4602 93.4984 42.2059L93.7135 41.8357L97.7219 42.7958C98.3936 41.9194 99.1751 41.1386 100.051 40.4662L99.3242 37.433C99.2503 37.1243 99.4406 36.8143 99.7486 36.7404L99.7506 36.7397C100.059 36.6658 100.369 36.8562 100.443 37.1642L101.348 40.943L101.032 41.1706C100.027 41.8939 99.1463 42.7749 98.4236 43.7794L98.198 44.0927L94.2838 43.1548C93.777 44.0868 93.3708 45.0665 93.0707 46.0762L96.5055 48.1828L96.4433 48.5641C96.3335 49.2383 96.2798 49.842 96.2798 50.409C96.2798 50.9773 96.3335 51.5803 96.4433 52.2539L96.5055 52.6346L93.07 54.7424C93.3695 55.7528 93.7763 56.7319 94.2832 57.6638L98.1974 56.726L98.423 57.0392C98.6355 57.3349 98.8638 57.622 99.1045 57.8973C99.3046 58.1262 99.2993 58.4682 99.0803 58.6795L99.0593 58.6998C98.8291 58.9241 98.459 58.9058 98.2471 58.6638ZM121.619 58.9849L120.141 58.6311C119.832 58.5572 119.641 58.2465 119.715 57.9372C119.789 57.6285 120.1 57.4375 120.409 57.5114L121.047 57.6645C121.554 56.7325 121.96 55.7528 122.261 54.7431L118.825 52.6352L118.887 52.2546C118.997 51.581 119.051 50.9773 119.051 50.4097C119.051 49.842 118.997 49.239 118.887 48.5647L118.825 48.1834L122.26 46.0769C121.96 45.0665 121.554 44.0874 121.047 43.1555L117.133 44.0933L116.907 43.7801C116.184 42.7755 115.303 41.8946 114.299 41.1712L113.982 40.9437L114.92 37.0295C113.988 36.5226 113.009 36.1158 111.999 35.8156L109.892 39.2511L109.51 39.1896C108.288 38.9915 107.041 38.9915 105.819 39.1896L105.438 39.2511L103.331 35.8163C103.2 35.8549 103.07 35.8961 102.939 35.9386C102.647 36.0341 102.333 35.8771 102.228 35.5894C102.117 35.2866 102.274 34.9452 102.58 34.8451C102.868 34.7509 103.157 34.6653 103.446 34.5887L103.86 34.4782L106.018 37.9961C107.192 37.8332 108.137 37.8332 109.311 37.9961L111.468 34.4782L111.883 34.5881C113.273 34.9582 114.615 35.5155 115.869 36.2427L116.239 36.4579L115.279 40.4669C116.155 41.1392 116.936 41.9201 117.608 42.7964L121.616 41.8364L121.832 42.2065C122.56 43.4609 123.117 44.8023 123.486 46.1927L123.596 46.6066L120.079 48.7635C120.16 49.3495 120.199 49.8917 120.199 50.4103C120.199 50.9296 120.159 51.4711 120.079 52.0571L123.596 54.2146L123.486 54.6286C123.117 56.019 122.56 57.3604 121.832 58.6147L121.619 58.9849ZM107.505 56.0138C104.583 55.9314 102.146 53.4959 102.063 50.5738C101.978 47.6288 104.179 45.1691 107.019 44.8415C107.363 44.8016 107.667 45.0704 107.667 45.4164C107.667 45.7067 107.45 45.9507 107.162 45.9834C104.657 46.2672 102.775 48.636 103.3 51.3069C103.641 53.0413 105.038 54.4389 106.773 54.7777C109.62 55.3343 112.122 53.1591 112.122 50.4097C112.122 49.4895 111.838 48.5987 111.316 47.8525C111.151 47.6171 111.196 47.2953 111.411 47.105C111.67 46.8767 112.073 46.9245 112.269 47.2077C112.92 48.1429 113.273 49.258 113.273 50.4097C113.272 53.5547 110.67 56.1027 107.505 56.0138Z" fill="#F0F0F0"/>
<path d="M70.8373 114.215L69.4436 111.943C68.6889 112.047 68.0709 112.047 67.3162 111.943L65.9225 114.215L65.655 114.143C64.7564 113.905 63.8899 113.545 63.0796 113.074L62.8402 112.935L63.4314 110.468C63.4791 110.268 63.6799 110.145 63.8794 110.193C64.0789 110.241 64.2018 110.442 64.1541 110.641L63.693 112.565C64.2953 112.893 64.9278 113.156 65.5804 113.349L66.9414 111.13L67.188 111.17C67.9774 111.299 68.7824 111.299 69.5718 111.17L69.8184 111.13L71.18 113.349C71.8327 113.156 72.4651 112.893 73.0674 112.565L72.4612 110.037L72.6639 109.891C73.2166 109.494 73.709 109.024 74.1321 108.493C74.2577 108.336 74.4814 108.298 74.6449 108.416C74.8143 108.538 74.8542 108.779 74.7247 108.943C74.3087 109.468 73.8313 109.938 73.2996 110.345L73.9203 112.935L73.6809 113.074C72.8706 113.544 72.004 113.904 71.1054 114.143L70.8373 114.215ZM62.2941 109.255C62.177 109.121 62.0639 108.983 61.9553 108.841L59.3655 109.462L59.2268 109.223C58.7566 108.412 58.3969 107.546 58.1582 106.647L58.0869 106.38L60.3589 104.986C60.3066 104.607 60.2811 104.257 60.2811 103.922C60.2811 103.587 60.3066 103.237 60.3589 102.858L58.0869 101.464L58.1582 101.197C58.3969 100.298 58.7566 99.4322 59.2268 98.6212L59.3655 98.3819L61.9553 99.0025C62.3889 98.4361 62.8938 97.9319 63.4602 97.4977L62.9906 95.5383C62.9429 95.3388 63.0658 95.1387 63.2646 95.0909L63.2659 95.0903C63.4654 95.0425 63.6655 95.1655 63.7133 95.365L64.298 97.8063L64.0932 97.9535C63.4445 98.4204 62.8755 98.9894 62.4085 99.6388L62.2627 99.8416L59.7337 99.236C59.4067 99.8383 59.1438 100.471 58.9502 101.123L61.1692 102.484L61.1293 102.731C61.058 103.167 61.024 103.556 61.024 103.923C61.024 104.29 61.0587 104.68 61.1293 105.115L61.1699 105.361L58.9508 106.723C59.1444 107.376 59.4073 108.008 59.7343 108.61L62.2634 108.005L62.4092 108.208C62.5465 108.399 62.6937 108.584 62.8493 108.762C62.9788 108.91 62.9749 109.131 62.8336 109.267L62.8199 109.28C62.6701 109.422 62.4314 109.41 62.2941 109.255ZM77.393 109.461L76.4382 109.233C76.2387 109.185 76.1151 108.985 76.1628 108.785C76.2106 108.586 76.4113 108.463 76.6108 108.51L77.0235 108.609C77.3505 108.007 77.6134 107.374 77.807 106.722L75.588 105.36L75.6285 105.114C75.6991 104.679 75.7338 104.289 75.7338 103.922C75.7338 103.555 75.6991 103.165 75.6285 102.73L75.5886 102.483L77.8076 101.122C77.614 100.469 77.3511 99.837 77.0241 99.2347L74.4951 99.8403L74.3493 99.6375C73.8823 98.9888 73.3133 98.4191 72.6646 97.9522L72.4599 97.805L73.0661 95.276C72.4638 94.9484 71.8314 94.6861 71.1787 94.4919L69.8177 96.7109L69.5718 96.671C68.7824 96.5428 67.9774 96.5428 67.1873 96.671L66.9414 96.7109L65.5804 94.4919C65.4961 94.5167 65.4111 94.5435 65.3273 94.571C65.139 94.6325 64.9363 94.5311 64.8682 94.3454C64.7963 94.1498 64.8983 93.9294 65.0958 93.8647C65.2816 93.8039 65.4686 93.7483 65.6543 93.6992L65.9225 93.6279L67.3162 95.9006C68.0748 95.7953 68.685 95.7953 69.4436 95.9006L70.8373 93.6279L71.1048 93.6992C72.0027 93.9386 72.8693 94.2983 73.6802 94.7678L73.9196 94.9072L73.299 97.497C73.8653 97.9313 74.3695 98.4355 74.8038 99.0018L77.3936 98.3812L77.5323 98.6206C78.0025 99.4309 78.3622 100.297 78.6009 101.196L78.6722 101.464L76.4002 102.857C76.4525 103.236 76.478 103.586 76.478 103.921C76.478 104.257 76.4525 104.607 76.4002 104.985L78.6722 106.379L78.6009 106.646C78.3622 107.545 78.0025 108.412 77.5323 109.222L77.393 109.461ZM68.2756 107.542C66.3875 107.489 64.814 105.915 64.7597 104.027C64.7047 102.125 66.1265 100.535 67.9617 100.324C68.1834 100.298 68.3796 100.472 68.3796 100.695C68.3796 100.883 68.2396 101.04 68.0532 101.061C66.4352 101.244 65.2194 102.775 65.5582 104.501C65.778 105.621 66.6811 106.524 67.8021 106.743C69.6411 107.103 71.2578 105.697 71.2578 103.921C71.2578 103.327 71.0747 102.751 70.7372 102.269C70.6306 102.118 70.6594 101.909 70.7987 101.786C70.9661 101.638 71.2258 101.67 71.3533 101.853C71.7738 102.457 72.0021 103.177 72.0021 103.921C72.0008 105.953 70.3193 107.6 68.2756 107.542Z" fill="#E6E6E6"/>
<path d="M163.5 243.33C233.532 243.33 290.303 240.014 290.303 235.925C290.303 231.835 233.532 228.519 163.5 228.519C93.4684 228.519 36.6965 231.835 36.6965 235.925C36.6965 240.014 93.4684 243.33 163.5 243.33Z" fill="#F5F5F5"/>
<path d="M237.696 59.4323H216.401L201.339 231.597H222.634C228.69 231.597 234.048 226.671 234.577 220.614L247.718 70.4149C248.248 64.3588 243.752 59.4323 237.696 59.4323Z" fill="#407BFF"/>
<path d="M233.351 59.4323H161.281C155.225 59.4323 149.867 64.3588 149.338 70.4149L136.197 220.614C135.667 226.671 140.163 231.597 146.219 231.597H218.289C224.345 231.597 229.702 226.671 230.232 220.614L243.373 70.4149C243.903 64.3588 239.407 59.4323 233.351 59.4323Z" fill="#407BFF"/>
<path opacity="0.3" d="M233.351 59.4323H161.281C155.225 59.4323 149.867 64.3588 149.338 70.4149L136.197 220.614C135.667 226.671 140.163 231.597 146.219 231.597H218.289C224.345 231.597 229.702 226.671 230.232 220.614L243.373 70.4149C243.903 64.3588 239.407 59.4323 233.351 59.4323Z" fill="white"/>
<path opacity="0.4" d="M233.043 62.9507H214.042C212.921 62.9507 211.868 63.6865 211.453 64.7604C209.917 68.7301 206.027 71.4488 201.883 71.4488H190.647C186.503 71.4488 183.088 68.7295 182.246 64.7604C182.019 63.6865 181.095 62.9514 179.974 62.9514H160.973C156.851 62.9514 153.217 66.2927 152.856 70.4148L139.715 220.614C139.355 224.737 142.404 228.078 146.526 228.078H218.596C222.718 228.078 226.352 224.737 226.713 220.614L239.854 70.4148C240.214 66.2927 237.165 62.9507 233.043 62.9507Z" fill="white"/>
<path d="M215.089 144.538H164.65C163.155 144.538 162.049 143.325 162.179 141.83L162.432 138.944C162.563 137.449 163.881 136.237 165.377 136.237H215.816C217.312 136.237 218.418 137.449 218.287 138.944L218.034 141.83C217.904 143.325 216.585 144.538 215.089 144.538Z" fill="white"/>
<path d="M214 156.99H163.561C162.065 156.99 160.959 155.778 161.09 154.283L161.342 151.396C161.473 149.901 162.792 148.689 164.287 148.689H214.726C216.222 148.689 217.328 149.901 217.197 151.396L216.945 154.283C216.814 155.778 215.495 156.99 214 156.99Z" fill="white"/>
<path opacity="0.1" d="M199.764 65.7643C199.619 67.4228 198.157 68.7668 196.499 68.7668C194.84 68.7668 193.614 67.4228 193.759 65.7643C193.904 64.1058 195.366 62.7618 197.025 62.7618C198.683 62.7618 199.909 64.1058 199.764 65.7643Z" fill="black"/>
<path opacity="0.1" d="M198.402 65.7643C198.323 66.67 197.524 67.4045 196.618 67.4045C195.712 67.4045 195.042 66.67 195.121 65.7643C195.2 64.8585 195.999 64.124 196.905 64.124C197.811 64.124 198.481 64.8585 198.402 65.7643Z" fill="black"/>
<g opacity="0.8">
<path d="M224.171 70.7727C223.685 70.7727 223.325 70.379 223.368 69.893L223.508 68.2848C223.551 67.7989 223.979 67.4052 224.465 67.4052C224.951 67.4052 225.311 67.7989 225.268 68.2848L225.128 69.893C225.085 70.379 224.657 70.7727 224.171 70.7727Z" fill="white"/>
<path d="M231.209 70.7726C230.723 70.7726 230.363 70.3789 230.406 69.893L230.736 66.1188C230.779 65.6328 231.207 65.2391 231.693 65.2391C232.179 65.2391 232.539 65.6328 232.496 66.1188L232.166 69.893C232.123 70.3789 231.695 70.7726 231.209 70.7726Z" fill="white"/>
<path d="M227.69 70.7726C227.204 70.7726 226.844 70.3789 226.887 69.893L227.122 67.2018C227.165 66.7159 227.593 66.3221 228.079 66.3221C228.565 66.3221 228.925 66.7159 228.882 67.2018L228.647 69.893C228.604 70.3789 228.176 70.7726 227.69 70.7726Z" fill="white"/>
</g>
<g opacity="0.8">
<path d="M163.915 70.7727H159.498C159.222 70.7727 159.019 70.5497 159.043 70.2743L159.25 67.9023C159.274 67.6269 159.517 67.4039 159.792 67.4039H164.21C164.485 67.4039 164.688 67.6269 164.664 67.9023L164.457 70.2743C164.433 70.5497 164.191 70.7727 163.915 70.7727Z" fill="white"/>
<path d="M165.964 70.1292C165.688 70.1292 165.485 69.9062 165.509 69.6308L165.604 68.5458C165.628 68.2705 165.871 68.0475 166.145 68.0475C166.421 68.0475 166.624 68.2705 166.6 68.5458L166.505 69.6308C166.482 69.9062 166.239 70.1292 165.964 70.1292Z" fill="white"/>
</g>
<path d="M206.787 125.567C215.587 117.143 216.464 103.777 208.746 95.7137C201.027 87.65 187.635 87.9422 178.835 96.3663C170.034 104.79 169.157 118.156 176.876 126.22C184.595 134.284 197.986 133.992 206.787 125.567Z" fill="white"/>
<path d="M192.878 110.151C187.329 110.151 182.645 112.262 182.244 116.85L181.799 121.942H201.896L202.341 116.85C202.742 112.262 198.428 110.151 192.878 110.151Z" fill="#407BFF"/>
<path d="M193.062 108.055C195.638 108.055 196.825 105.967 197.05 103.392C197.276 100.816 196.453 98.7285 193.878 98.7285C191.302 98.7285 190.115 100.816 189.889 103.392C189.664 105.967 190.487 108.055 193.062 108.055Z" fill="#407BFF"/>
<path d="M212.787 140.239C211.417 140.239 210.26 140.76 210.161 141.893L210.051 143.151H215.015L215.125 141.893C215.224 140.76 214.158 140.239 212.787 140.239Z" fill="#407BFF"/>
<path d="M212.833 139.721C213.469 139.721 213.762 139.205 213.817 138.569C213.873 137.933 213.67 137.417 213.034 137.417C212.398 137.417 212.105 137.933 212.049 138.569C211.993 139.205 212.197 139.721 212.833 139.721Z" fill="#407BFF"/>
<path d="M197.504 169.442H177.878C175.586 169.442 173.89 167.584 174.091 165.291C174.292 162.999 176.312 161.14 178.605 161.14H198.231C200.523 161.14 202.219 162.999 202.018 165.291C201.817 167.584 199.796 169.442 197.504 169.442Z" fill="#407BFF"/>
<path d="M195.137 215.732H174.132C171.71 215.732 169.918 213.768 170.13 211.346L171.47 196.026C171.682 193.604 173.817 191.64 176.239 191.64H197.244C199.666 191.64 201.458 193.604 201.246 196.026L199.906 211.346C199.694 213.768 197.559 215.732 195.137 215.732Z" fill="#407BFF"/>
<g opacity="0.6">
<path d="M188.659 199.896C188.786 198.438 187.708 197.256 186.25 197.256C184.792 197.256 183.507 198.438 183.379 199.896C183.304 200.764 183.661 201.528 184.266 202.008L183.805 207.283C183.729 208.149 184.369 208.851 185.235 208.851C186.101 208.851 186.864 208.149 186.94 207.283L187.402 202.008C188.092 201.528 188.583 200.764 188.659 199.896Z" fill="white"/>
</g>
<path d="M197.43 194.829H194.723L195.386 187.249C195.785 182.694 192.403 178.988 187.848 178.988C183.293 178.988 179.263 182.694 178.865 187.249L178.202 194.829H175.495L176.158 187.249C176.687 181.201 182.037 176.281 188.085 176.281C194.133 176.281 198.622 181.201 198.093 187.249L197.43 194.829Z" fill="#407BFF"/>
<path d="M213.12 151.847L213.183 151.12C213.248 150.376 212.696 149.772 211.953 149.772C211.209 149.772 210.552 150.377 210.487 151.12L210.424 151.847C210.127 151.847 209.865 152.088 209.84 152.385L209.67 154.318C209.644 154.615 209.864 154.855 210.161 154.855H212.855C213.152 154.855 213.414 154.615 213.44 154.318L213.609 152.385C213.636 152.088 213.416 151.847 213.12 151.847ZM211.924 150.104C212.484 150.104 212.899 150.559 212.851 151.119L212.787 151.846H210.757L210.82 151.119C210.869 150.559 211.364 150.104 211.924 150.104Z" fill="#407BFF"/>
<path d="M172.556 152.621L171.615 152.427C171.504 152.404 171.447 152.287 171.493 152.177L171.885 151.251C171.969 151.052 171.727 150.905 171.575 151.063L170.864 151.795C170.78 151.882 170.644 151.882 170.576 151.795L169.993 151.063C169.868 150.906 169.601 151.052 169.65 151.251L169.879 152.177C169.907 152.287 169.829 152.404 169.713 152.427L168.739 152.621C168.529 152.663 168.504 152.957 168.706 152.999L169.646 153.193C169.757 153.216 169.815 153.333 169.769 153.443L169.377 154.369C169.292 154.568 169.534 154.715 169.687 154.557L170.398 153.825C170.482 153.738 170.617 153.738 170.686 153.825L171.269 154.557C171.394 154.715 171.661 154.568 171.612 154.369L171.383 153.443C171.355 153.333 171.433 153.216 171.549 153.193L172.523 152.999C172.732 152.957 172.758 152.663 172.556 152.621Z" fill="#263238"/>
<path d="M178.745 152.621L177.804 152.427C177.693 152.404 177.636 152.287 177.682 152.177L178.074 151.251C178.158 151.052 177.916 150.905 177.764 151.063L177.053 151.795C176.968 151.882 176.834 151.882 176.764 151.795L176.182 151.063C176.057 150.906 175.789 151.052 175.838 151.251L176.068 152.177C176.095 152.287 176.017 152.404 175.902 152.427L174.927 152.621C174.718 152.663 174.693 152.957 174.894 152.999L175.834 153.193C175.946 153.216 176.003 153.333 175.957 153.443L175.565 154.369C175.481 154.568 175.723 154.715 175.875 154.557L176.586 153.825C176.67 153.738 176.805 153.738 176.874 153.825L177.457 154.557C177.582 154.715 177.849 154.568 177.8 154.369L177.571 153.443C177.543 153.333 177.622 153.216 177.737 153.193L178.711 152.999C178.921 152.957 178.947 152.663 178.745 152.621Z" fill="#263238"/>
<path d="M184.933 152.621L183.993 152.427C183.882 152.404 183.824 152.287 183.871 152.177L184.262 151.251C184.347 151.052 184.105 150.905 183.952 151.063L183.242 151.795C183.157 151.882 183.022 151.882 182.953 151.795L182.37 151.063C182.246 150.906 181.978 151.052 182.027 151.251L182.257 152.177C182.284 152.287 182.206 152.404 182.091 152.427L181.116 152.621C180.907 152.663 180.881 152.957 181.083 152.999L182.023 153.193C182.134 153.216 182.192 153.333 182.145 153.443L181.754 154.369C181.669 154.568 181.911 154.715 182.064 154.557L182.775 153.825C182.859 153.738 182.994 153.738 183.063 153.825L183.646 154.557C183.771 154.715 184.038 154.568 183.989 154.369L183.76 153.443C183.732 153.333 183.81 153.216 183.926 153.193L184.9 152.999C185.11 152.957 185.136 152.663 184.933 152.621Z" fill="#263238"/>
<path d="M191.123 152.621L190.183 152.427C190.071 152.404 190.014 152.287 190.06 152.177L190.452 151.251C190.536 151.052 190.294 150.905 190.142 151.063L189.431 151.795C189.347 151.882 189.211 151.882 189.143 151.795L188.56 151.063C188.435 150.906 188.168 151.052 188.217 151.251L188.446 152.177C188.474 152.287 188.396 152.404 188.28 152.427L187.306 152.621C187.096 152.663 187.071 152.957 187.273 152.999L188.213 153.193C188.325 153.216 188.382 153.333 188.336 153.443L187.944 154.369C187.86 154.568 188.102 154.715 188.254 154.557L188.965 153.825C189.049 153.738 189.185 153.738 189.253 153.825L189.836 154.557C189.961 154.715 190.228 154.568 190.179 154.369L189.95 153.443C189.922 153.333 190 153.216 190.116 153.193L191.09 152.999C191.299 152.957 191.325 152.663 191.123 152.621Z" fill="#263238"/>
<path d="M197.312 152.621L196.371 152.427C196.26 152.404 196.203 152.287 196.249 152.177L196.641 151.251C196.725 151.052 196.483 150.905 196.331 151.063L195.62 151.795C195.536 151.882 195.4 151.882 195.332 151.795L194.749 151.063C194.624 150.906 194.356 151.052 194.406 151.251L194.635 152.177C194.663 152.287 194.585 152.404 194.469 152.427L193.494 152.621C193.285 152.663 193.26 152.957 193.461 152.999L194.402 153.193C194.513 153.216 194.57 153.333 194.524 153.443L194.132 154.369C194.048 154.568 194.29 154.715 194.442 154.557L195.153 153.825C195.237 153.738 195.372 153.738 195.441 153.825L196.024 154.557C196.149 154.715 196.417 154.568 196.368 154.369L196.138 153.443C196.11 153.333 196.189 153.216 196.304 153.193L197.279 152.999C197.488 152.957 197.514 152.663 197.312 152.621Z" fill="#263238"/>
<path d="M203.501 152.621L202.56 152.427C202.449 152.404 202.391 152.287 202.438 152.177L202.83 151.251C202.913 151.052 202.672 150.905 202.52 151.063L201.809 151.795C201.724 151.882 201.59 151.882 201.52 151.795L200.938 151.063C200.813 150.906 200.545 151.052 200.594 151.251L200.824 152.177C200.851 152.287 200.773 152.404 200.658 152.427L199.683 152.621C199.474 152.663 199.448 152.957 199.65 152.999L200.59 153.193C200.701 153.216 200.759 153.333 200.713 153.443L200.321 154.369C200.236 154.568 200.478 154.715 200.631 154.557L201.342 153.825C201.426 153.738 201.562 153.738 201.63 153.825L202.213 154.557C202.338 154.715 202.605 154.568 202.556 154.369L202.327 153.443C202.299 153.333 202.377 153.216 202.493 153.193L203.467 152.999C203.677 152.957 203.703 152.663 203.501 152.621Z" fill="#263238"/>
<path d="M188.583 139.08H176.963C176.241 139.08 175.604 139.665 175.541 140.387C175.477 141.109 176.012 141.694 176.734 141.694H188.354C189.076 141.694 189.712 141.109 189.776 140.387C189.839 139.665 189.305 139.08 188.583 139.08Z" fill="#263238"/>
<path d="M200.379 139.08H193.636C192.914 139.08 192.278 139.665 192.215 140.387C192.151 141.109 192.685 141.694 193.407 141.694H200.15C200.872 141.694 201.509 141.109 201.572 140.387C201.635 139.665 201.101 139.08 200.379 139.08Z" fill="#263238"/>
<path d="M209.281 198.366C204.899 200.115 201.058 202.667 198.429 205.569C196.888 204.257 194.696 203.346 192.069 202.93L191.761 202.881L191.626 204.423L191.798 204.488C194.392 205.468 196.502 207.206 197.902 209.514L198.122 209.877L198.365 209.488C201.06 205.174 204.989 201.56 209.428 199.312L209.579 199.235L209.668 198.21L209.281 198.366Z" fill="#263238"/>
<path opacity="0.2" d="M150.842 69.6C150.025 71.0368 149.486 72.6398 149.337 74.3382L139.597 185.663H169.732L175.786 162.45L173.794 139.238L179.848 116.025L177.856 92.8131L183.911 69.6006H150.842V69.6Z" fill="black"/>
<path d="M175.24 86.2731L181.294 63.06H105.087L99.0325 86.2731L101.026 109.485L94.9712 132.698L96.9639 155.911L90.9092 179.123H167.116L173.171 155.911L171.178 132.698L177.232 109.485L175.24 86.2731Z" fill="#407BFF"/>
<path opacity="0.7" d="M175.24 86.2731L181.294 63.06H105.087L99.0325 86.2731L101.026 109.485L94.9712 132.698L96.9639 155.911L90.9092 179.123H167.116L173.171 155.911L171.178 132.698L177.232 109.485L175.24 86.2731Z" fill="white"/>
<path opacity="0.5" d="M175.239 86.2731H99.0325L105.087 63.06H181.294L175.239 86.2731Z" fill="white"/>
<path opacity="0.5" d="M171.178 132.698H94.9712L101.026 109.485H177.233L171.178 132.698Z" fill="white"/>
<path opacity="0.5" d="M167.116 179.123H90.9092L96.9639 155.911H173.171L167.116 179.123Z" fill="white"/>
<path opacity="0.2" d="M165.042 95.9732C164.387 96.1779 163.549 96.3009 162.635 96.3009C161.29 96.3009 160.108 96.0347 159.435 95.6338C159.251 95.5233 159.048 95.4683 158.845 95.4683C158.657 95.4683 158.469 95.5213 158.295 95.6161C158.282 95.6233 158.268 95.6259 158.256 95.6338C158.248 95.6384 158.239 95.6416 158.232 95.6462C157.983 95.7914 157.669 95.9189 157.303 96.0216C156.674 96.1975 155.897 96.3015 155.056 96.3015C154.828 96.3015 154.604 96.2937 154.386 96.2793C153.734 96.2348 153.14 96.1276 152.649 95.9745C152.564 95.9477 152.477 95.932 152.393 95.9261C151.8 95.8869 151.267 96.3421 151.267 96.9712V97.6802H121.647C119.354 97.6802 117.496 99.5382 117.496 101.831V106.014C117.496 108.306 119.354 110.165 121.647 110.165H155.345C155.42 110.165 155.492 110.158 155.566 110.154C155.929 110.455 156.308 110.755 156.709 111.059C157.189 111.423 157.694 111.792 158.224 112.176C158.593 112.444 159.099 112.444 159.468 112.176C163.705 109.103 166.426 106.983 166.426 101.159V96.9719C166.425 96.2518 165.729 95.7587 165.042 95.9732Z" fill="black"/>
<path d="M154.701 107.86H121.002C118.71 107.86 116.851 106.002 116.851 103.709V99.5258C116.851 97.2335 118.709 95.3748 121.002 95.3748H154.701C156.993 95.3748 158.852 97.2328 158.852 99.5258V103.709C158.852 106.001 156.993 107.86 154.701 107.86Z" fill="#407BFF"/>
<path d="M161.992 93.9963C160.646 93.9963 159.465 93.7301 158.792 93.3292C158.422 93.1088 157.981 93.1088 157.612 93.3292C156.939 93.7301 155.758 93.9963 154.412 93.9963C153.497 93.9963 152.66 93.8733 152.005 93.6693C151.319 93.4547 150.622 93.9472 150.622 94.6666V98.8542C150.622 104.678 153.342 106.798 157.58 109.871C157.949 110.138 158.455 110.138 158.824 109.871C163.061 106.798 165.782 104.678 165.782 98.8542V94.6666C165.782 93.9472 165.085 93.4547 164.398 93.6693C163.744 93.8733 162.906 93.9963 161.992 93.9963Z" fill="#407BFF"/>
<path opacity="0.3" d="M161.992 93.9963C160.646 93.9963 159.465 93.7301 158.792 93.3292C158.422 93.1088 157.981 93.1088 157.612 93.3292C156.939 93.7301 155.758 93.9963 154.412 93.9963C153.497 93.9963 152.66 93.8733 152.005 93.6693C151.319 93.4547 150.622 93.9472 150.622 94.6666V98.8542C150.622 104.678 153.342 106.798 157.58 109.871C157.949 110.138 158.455 110.138 158.824 109.871C163.061 106.798 165.782 104.678 165.782 98.8542V94.6666C165.782 93.9472 165.085 93.4547 164.398 93.6693C163.744 93.8733 162.906 93.9963 161.992 93.9963Z" fill="white"/>
<path opacity="0.2" d="M157.612 93.3291C156.939 93.73 155.758 93.9962 154.412 93.9962C153.497 93.9962 152.66 93.8732 152.005 93.6692C151.319 93.4547 150.622 93.9471 150.622 94.6659V98.8541C150.622 104.678 153.342 106.798 157.58 109.871C157.764 110.004 157.983 110.071 158.202 110.071V93.1636C157.999 93.1636 157.796 93.2186 157.612 93.3291Z" fill="white"/>
<path d="M164.275 97.7109C161.537 98.8436 159.194 100.496 157.656 102.376C156.584 101.526 155.113 100.936 153.388 100.666L153.186 100.635V101.634L153.301 101.676C155.036 102.31 156.501 103.437 157.539 104.931L157.701 105.166L157.837 104.914C159.338 102.12 161.678 99.7795 164.425 98.3237L164.519 98.274V97.6102L164.275 97.7109Z" fill="#263238"/>
<path d="M179.949 69.5876H177.057C175.454 69.5876 174.268 68.2881 174.408 66.6845L174.661 63.7931C174.802 62.1895 176.215 60.89 177.819 60.89H180.71C182.314 60.89 183.499 62.1902 183.359 63.7931L183.106 66.6845C182.966 68.2881 181.552 69.5876 179.949 69.5876Z" fill="#407BFF"/>
<path d="M181.15 63.7872L180.523 63.0992L178.943 64.5511L177.618 63.0992L176.87 63.7872L178.195 65.2391L176.616 66.691L177.244 67.379L178.823 65.9271L180.148 67.379L180.896 66.691L179.571 65.2391L181.15 63.7872Z" fill="white"/>
<path d="M115.347 94.5305C117.023 96.3532 118.625 98.2413 120.206 100.147C121.79 102.051 123.334 103.989 124.859 105.943C124.926 106.028 124.899 105.994 124.915 106.019C124.922 106.03 124.923 106.049 124.932 106.058C124.949 106.077 124.958 106.108 124.979 106.125C125.009 106.174 125.053 106.208 125.096 106.254C125.189 106.337 125.316 106.401 125.457 106.427C125.527 106.437 125.601 106.448 125.676 106.44C125.717 106.445 125.753 106.433 125.795 106.431C125.818 106.432 125.834 106.42 125.856 106.418C125.889 106.403 125.868 106.433 125.958 106.379L127.597 105.491C129.794 104.327 132.009 103.19 134.3 102.169L136.215 104.541C134.369 106.239 132.447 108.363 130.508 109.92L129.043 111.071C129.005 111.105 128.848 111.209 128.749 111.275C128.636 111.347 128.525 111.426 128.406 111.49C128.168 111.621 127.929 111.752 127.674 111.852C127.172 112.069 126.636 112.207 126.092 112.291C125.002 112.453 123.869 112.343 122.812 111.965C122.285 111.775 121.774 111.522 121.309 111.199C121.071 111.045 120.853 110.863 120.636 110.681C120.527 110.59 120.429 110.489 120.327 110.39L120.067 110.126C118.337 108.351 116.625 106.559 114.952 104.734C113.278 102.909 111.623 101.068 110.043 99.1608L115.347 94.5305Z" fill="#B55B52"/>
<path d="M133.409 103.613L134.934 98.7167L138.947 100.717C138.947 100.717 138.362 104.289 135.441 104.909L133.409 103.613Z" fill="#B55B52"/>
<path d="M136.544 97.3583L140.163 98.355L138.948 100.716L134.935 98.716L136.544 97.3583Z" fill="#B55B52"/>
<path d="M94.2375 95.8646C93.8006 97.945 93.267 100.002 92.7078 102.053C92.1512 104.104 91.5437 106.144 90.9119 108.177L90.6765 108.939L90.5587 109.321C90.5339 109.404 90.5175 109.425 90.4953 109.48C90.4234 109.673 90.3802 109.882 90.3717 110.102C90.3606 110.538 90.4639 111.022 90.749 111.444C90.7726 111.512 90.9982 111.748 91.1742 111.939L91.717 112.529L92.7876 113.728C93.4926 114.537 94.195 115.349 94.8621 116.202L92.5829 118.84C91.6418 118.305 90.7366 117.727 89.8335 117.147L88.4921 116.262L87.8289 115.81C87.6033 115.653 87.4222 115.548 87.0611 115.249C85.8172 114.194 84.8879 112.697 84.5472 111.033C84.3732 110.204 84.3307 109.338 84.4275 108.482C84.453 108.276 84.4916 108.037 84.523 107.861L84.5923 107.468L84.7309 106.682C85.0978 104.584 85.4889 102.493 85.9304 100.413C86.3699 98.3335 86.8349 96.2596 87.396 94.2094L94.2375 95.8646Z" fill="#B55B52"/>
<path d="M92.6228 116.016L95.3212 114.636L96.5115 119.222C96.5115 119.222 94.3461 120.052 92.6699 118.986L92.6228 116.016Z" fill="#B55B52"/>
<path d="M99.0495 113.169L99.1718 117.376L96.1589 119.347L95.1138 114.725L99.0495 113.169Z" fill="#B55B52"/>
<path d="M107.872 74.2401C107.938 74.5645 108.163 74.792 108.375 74.7489C108.587 74.7057 108.705 74.4082 108.639 74.0838C108.573 73.7594 108.348 73.5318 108.136 73.575C107.925 73.6181 107.807 73.9157 107.872 74.2401Z" fill="#263238"/>
<path d="M108.134 74.798C108.134 74.798 109.251 76.518 110.245 77.255C109.78 77.9071 108.756 77.8607 108.756 77.8607L108.134 74.798Z" fill="#A02724"/>
<path d="M106.319 72.6809C106.272 72.6809 106.225 72.6639 106.187 72.6293C106.109 72.5567 106.104 72.4337 106.177 72.3546C106.906 71.5652 107.791 71.7058 107.829 71.7117C107.935 71.73 108.006 71.8301 107.988 71.936C107.97 72.0413 107.869 72.112 107.765 72.0949C107.736 72.0904 107.044 71.989 106.463 72.6182C106.424 72.66 106.372 72.6809 106.319 72.6809Z" fill="#263238"/>
<path d="M98.4408 78.7991C99.1621 81.799 99.8822 87.2959 97.3074 89.2971C97.3074 89.2971 98.3132 92.3402 105.152 92.3402C112.672 92.3402 108.746 90.3802 108.746 90.3802C104.642 89.5816 104.747 86.0167 105.462 83.6858L98.4408 78.7991Z" fill="#B55B52"/>
<path d="M96.5061 89.8537C96.0581 89.0198 95.5644 88.0663 96.5853 87.7674C97.7082 87.4385 104.922 86.8289 107.041 87.4463C106.39 88.6046 107.493 90.0283 107.493 90.0283L96.5061 89.8537Z" fill="#263238"/>
<path d="M102.479 230.186H107.198L107.667 220.69H102.949L102.479 230.186Z" fill="#B55B52"/>
<path d="M72.5371 228.878L77.3159 229.131L80.2203 219.775L75.4409 219.522L72.5371 228.878Z" fill="#B55B52"/>
<path d="M77.17 228.753L72.6672 227.778C72.5037 227.742 72.3369 227.825 72.2669 227.978L70.7039 231.369C70.5417 231.721 70.7562 232.133 71.1362 232.209C72.7136 232.522 73.4978 232.595 75.4774 233.023C76.6958 233.287 79.4452 233.957 81.128 234.322C82.7734 234.678 83.3902 233.07 82.7342 232.77C79.7925 231.426 78.5636 230.243 77.7671 229.14C77.6238 228.942 77.41 228.805 77.17 228.753Z" fill="#263238"/>
<path d="M106.948 229.712H102.47C102.303 229.712 102.157 229.828 102.121 229.992L101.311 233.636C101.227 234.014 101.513 234.372 101.9 234.365C103.516 234.338 105.85 234.243 107.881 234.243C110.255 234.243 112.305 234.373 115.089 234.373C116.772 234.373 117.239 232.671 116.535 232.517C113.327 231.815 110.708 231.74 107.936 230.031C107.635 229.845 107.302 229.712 106.948 229.712Z" fill="#263238"/>
<path d="M88.7641 90.6836C85.203 92.3769 84.2351 102.641 84.2351 102.641L93.0445 106.712C93.0445 106.712 95.2308 103.491 95.3982 98.4264C95.5735 93.1205 92.4049 88.9525 88.7641 90.6836Z" fill="#263238"/>
<path opacity="0.4" d="M93.5428 97.0137C91.9523 99.4825 92.1027 103.303 92.6533 106.531L93.0425 106.713C93.0425 106.713 95.2314 103.488 95.3995 98.425C95.4093 98.1085 95.408 97.7939 95.3969 97.4878L93.5428 97.0137Z" fill="black"/>
<path d="M113.347 90.4358C113.347 90.4358 117.711 95.3656 113.589 125.879C106.98 125.879 94.8717 125.879 91.656 125.879C91.5049 122.512 93.6206 106.089 90.3728 90.2245C90.3728 90.2245 94.1327 89.4698 97.7153 89.2971C100.518 89.1624 104.575 89.0728 107.039 89.2971C110.287 89.5941 113.347 90.4358 113.347 90.4358Z" fill="#407BFF"/>
<path opacity="0.6" d="M113.347 90.4358C113.347 90.4358 117.711 95.3656 113.589 125.879C106.98 125.879 94.8717 125.879 91.656 125.879C91.5049 122.512 93.6206 106.089 90.3728 90.2245C90.3728 90.2245 94.1327 89.4698 97.7153 89.2971C100.518 89.1624 104.575 89.0728 107.039 89.2971C110.287 89.5941 113.347 90.4358 113.347 90.4358Z" fill="#FAFAFA"/>
<path opacity="0.2" d="M115.263 99.7618L115.18 99.6892L110.818 97.3583C110.374 104.075 113.377 108.285 115.163 110.127C115.409 105.824 115.403 102.429 115.263 99.7618Z" fill="black"/>
<path opacity="0.2" d="M107.667 220.692L107.425 225.587H102.705L102.946 220.692H107.667Z" fill="black"/>
<path opacity="0.2" d="M75.4396 219.525L80.2203 219.778L78.7207 224.6L73.9399 224.347L75.4396 219.525Z" fill="black"/>
<path d="M96.9221 75.7502C97.9757 79.6814 98.3923 82.0358 100.819 83.6701C104.467 86.1285 109.011 83.3072 109.153 79.1405C109.281 75.3905 107.536 69.5921 103.318 68.7995C99.1614 68.0192 95.8685 71.819 96.9221 75.7502Z" fill="#B55B52"/>
<path d="M105.809 125.879C105.809 125.879 101.155 157.217 98.6002 168.958C95.8024 181.814 80.8009 224.35 80.8009 224.35L73.4604 222.761C73.4604 222.761 82.8676 188.097 85.2154 170.123C86.1317 163.109 87.2376 151.803 88.6372 142.376C89.9923 133.247 91.656 125.879 91.656 125.879H105.809Z" fill="#263238"/>
<path d="M82.5583 221.899C82.5897 221.905 81.1901 224.554 81.1901 224.554L72.9314 222.765L73.6279 220.283L82.5583 221.899Z" fill="#407BFF"/>
<path opacity="0.6" d="M82.5583 221.899C82.5897 221.905 81.1901 224.554 81.1901 224.554L72.9314 222.765L73.6279 220.283L82.5583 221.899Z" fill="white"/>
<path opacity="0.6" d="M102.868 137.044C97.4865 138.099 98.0561 158.166 98.7036 168.487C100.255 161.192 102.527 147.153 104.079 137.19C103.722 137.011 103.319 136.955 102.868 137.044Z" fill="black"/>
<path d="M113.589 125.879C113.589 125.879 115.778 156.539 115.332 169.044C114.869 182.051 108.701 224.64 108.701 224.64H101.755C101.755 224.64 101.5 182.811 101.191 170.037C100.854 156.11 99.1726 125.879 99.1726 125.879H113.589Z" fill="#263238"/>
<path d="M110.037 221.873C110.069 221.873 109.646 224.757 109.646 224.757H101.195L100.967 222.183L110.037 221.873Z" fill="#407BFF"/>
<path opacity="0.6" d="M110.037 221.873C110.069 221.873 109.646 224.757 109.646 224.757H101.195L100.967 222.183L110.037 221.873Z" fill="white"/>
<path d="M110.787 96.1792C110.787 104.407 115.165 107.795 115.165 107.795L122.282 100.838C122.282 100.838 119.862 96.6684 116.535 92.8412C112.423 88.1128 110.787 90.8883 110.787 96.1792Z" fill="#263238"/>
<path opacity="0.2" d="M108.903 80.6296C108.723 81.1339 108.249 81.9886 107.058 82.3294C105.321 82.8264 105.298 84.2986 105.298 84.2986L105.319 84.3261C106.977 83.7787 108.357 82.4092 108.903 80.6296Z" fill="black"/>
<path d="M107.058 67.9368C108.525 66.088 106.269 65.9997 106.269 65.9997C106.855 63.7924 104.217 64.9807 104.217 64.9807C102.633 62.7977 101.739 65.4542 101.739 65.4542C100.097 63.6047 99.7944 66.6275 99.7944 66.6275C98.147 64.2816 97.3079 67.6654 97.3079 67.6654C95.7906 65.2293 94.8619 68.4031 94.8619 68.4031C91.7293 67.2815 93.2184 70.5371 93.2184 70.5371C90.5442 70.6123 92.6894 72.6809 92.6894 72.6809C89.4861 72.6888 92.3107 74.5233 92.3107 74.5233C89.7666 76.1923 92.9601 76.6416 92.9601 76.6416C90.8843 79.8874 94.4486 78.6834 94.4486 78.6834C93.0046 81.8958 96.2066 80.4805 96.2066 80.4805C95.9986 83.5805 97.7892 82.7368 98.6499 82.1626C98.816 82.7872 99.126 83.4484 99.7015 83.5236C100.819 83.6695 101.036 81.5609 101.036 81.5609C101.036 81.5609 102.072 82.3673 102.941 81.9305C103.811 81.4936 103.483 80.3877 103.483 80.3877C103.483 80.3877 104.148 80.8841 104.758 80.4106C105.13 80.1208 105.132 78.0392 104.657 77.3073L106.359 76.6409C106.359 76.6409 107.623 76.463 107.058 74.7973C106.495 73.1322 106.973 71.817 106.973 71.817C108.894 70.9165 107.318 69.8334 107.318 69.8334C109.54 68.394 107.058 67.9368 107.058 67.9368Z" fill="#263238"/>
<path d="M103.61 75.915C103.877 76.947 104.555 77.8338 105.264 78.3616C106.332 79.1556 107.128 78.374 107.052 77.1668C106.984 76.0798 106.347 74.3572 105.17 74.0347C104.011 73.7169 103.304 74.7352 103.61 75.915Z" fill="#B55B52"/>
</svg>
