<svg width="390" height="304" viewBox="0 0 340 254" fill="none" xmlns="http://www.w3.org/2000/svg">
<path d="M340 222.663H0V222.833H340V222.663Z" fill="#E6E6E6"/>
<path d="M84.8816 232.952H62.3586V233.122H84.8816V232.952Z" fill="#E6E6E6"/>
<path d="M55.2309 232.952H42.1797V233.122H55.2309V232.952Z" fill="#E6E6E6"/>
<path d="M143.177 235.454H130.126V235.624H143.177V235.454Z" fill="#E6E6E6"/>
<path d="M211.219 239.251H181.848V239.421H211.219V239.251Z" fill="#E6E6E6"/>
<path d="M175.794 239.251H171.487V239.421H175.794V239.251Z" fill="#E6E6E6"/>
<path d="M308.273 235.454H244.574V235.624H308.273V235.454Z" fill="#E6E6E6"/>
<path d="M161.17 192.337H29.8623C27.7223 192.337 25.9808 190.595 25.9808 188.455V3.88144C25.9808 1.74148 27.7223 0 29.8623 0H161.17C163.309 0 165.05 1.74148 165.05 3.88144V188.455C165.05 190.595 163.309 192.337 161.17 192.337ZM29.8623 0.17068C27.8155 0.17068 26.1508 1.83532 26.1508 3.88212V188.456C26.1508 190.503 27.8155 192.167 29.8623 192.167H161.17C163.216 192.167 164.88 190.503 164.88 188.456V3.88144C164.88 1.83532 163.216 0.17 161.17 0.17L29.8623 0.17068Z" fill="#E6E6E6"/>
<path d="M308.251 192.337H176.944C174.805 192.337 173.063 190.595 173.063 188.455V3.88144C173.063 1.74148 174.805 0 176.944 0H308.251C310.392 0 312.132 1.74148 312.132 3.88144V188.455C312.133 190.595 310.392 192.337 308.251 192.337ZM176.944 0.17068C174.898 0.17068 173.233 1.83532 173.233 3.88212V188.456C173.233 190.503 174.898 192.167 176.944 192.167H308.251C310.298 192.167 311.962 190.503 311.962 188.456V3.88144C311.962 1.83532 310.298 0.17 308.251 0.17L176.944 0.17068Z" fill="#E6E6E6"/>
<path d="M181.831 164.577H166.879V223.896H181.831V164.577Z" fill="#E0E0E0"/>
<path d="M178.992 223.897H181.831V215.818H176.014L178.992 223.897Z" fill="#FAFAFA"/>
<path d="M116.31 164.577H101.357V223.896H116.31V164.577Z" fill="#E0E0E0"/>
<path d="M181.832 164.577H113.831V218.94H181.832V164.577Z" fill="#FAFAFA"/>
<path d="M179.366 167.249V181.632H116.297V167.249H179.366ZM179.628 166.987H116.034V181.895H179.628V166.987Z" fill="#E0E0E0"/>
<path d="M116.671 223.897H113.831V215.818H119.649L116.671 223.897Z" fill="#FAFAFA"/>
<path d="M146.327 174.44C146.327 175.271 147 175.945 147.831 175.945C148.662 175.945 149.335 175.271 149.335 174.44C149.335 173.61 148.662 172.936 147.831 172.936C147.001 172.937 146.327 173.61 146.327 174.44Z" fill="#E6E6E6"/>
<path d="M179.366 184.567V198.95H116.297V184.567H179.366ZM179.628 184.305H116.034V199.213H179.628V184.305Z" fill="#E0E0E0"/>
<path d="M146.327 191.758C146.327 192.588 147 193.262 147.831 193.262C148.662 193.262 149.335 192.589 149.335 191.758C149.335 190.927 148.662 190.254 147.831 190.254C147.001 190.254 146.327 190.928 146.327 191.758Z" fill="#E6E6E6"/>
<path d="M179.366 201.885V216.267H116.297V201.885H179.366ZM179.628 201.622H116.034V216.53H179.628V201.622Z" fill="#E0E0E0"/>
<path d="M146.327 209.076C146.327 209.907 147 210.58 147.831 210.58C148.662 210.58 149.335 209.907 149.335 209.076C149.335 208.245 148.662 207.572 147.831 207.572C147.001 207.572 146.327 208.245 146.327 209.076Z" fill="#E6E6E6"/>
<path d="M107.175 130.128H92.2223V223.897H107.175V130.128Z" fill="#E0E0E0"/>
<path d="M104.335 223.897H107.175V215.818H101.357L104.335 223.897Z" fill="#FAFAFA"/>
<path d="M51.2903 130.128H36.3378V223.897H51.2903V130.128Z" fill="#E0E0E0"/>
<path d="M107.175 130.128H48.8124V218.94H107.175V130.128Z" fill="#FAFAFA"/>
<path d="M104.662 132.642V152.75H51.325V132.642H104.662ZM104.972 132.333H51.0156V153.06H104.972V132.333Z" fill="#E0E0E0"/>
<path d="M104.662 155.194V208.53H79.2568V155.194H104.662ZM104.972 154.884H78.9467V208.841H104.972V154.884Z" fill="#E0E0E0"/>
<path d="M76.7304 155.194V208.53H51.325V155.194H76.7304ZM77.0405 154.884H51.0156V208.841H77.0405V154.884Z" fill="#E0E0E0"/>
<path d="M51.6521 223.897H48.8124V215.818H54.6298L51.6521 223.897Z" fill="#FAFAFA"/>
<path d="M76.4898 142.696C76.4898 143.527 77.163 144.2 77.994 144.2C78.8242 144.2 79.4981 143.527 79.4981 142.696C79.4981 141.866 78.8249 141.192 77.994 141.192C77.163 141.193 76.4898 141.866 76.4898 142.696Z" fill="#E6E6E6"/>
<path d="M81.874 180.59C81.874 181.421 82.5472 182.095 83.3781 182.095C84.2091 182.095 84.8823 181.421 84.8823 180.59C84.8823 179.76 84.2091 179.086 83.3781 179.086C82.5472 179.086 81.874 179.759 81.874 180.59Z" fill="#E6E6E6"/>
<path d="M71.1049 180.59C71.1049 181.421 71.7781 182.095 72.609 182.095C73.4393 182.095 74.1132 181.421 74.1132 180.59C74.1132 179.76 73.44 179.086 72.609 179.086C71.7787 179.086 71.1049 179.759 71.1049 180.59Z" fill="#E6E6E6"/>
<path d="M69.411 103.984H63.1033C63.1033 103.984 64.1981 109.815 64.1981 113.246C64.1981 116.677 59.4 130.127 66.2572 130.127C73.1136 130.127 68.3162 116.676 68.3162 113.246C68.3155 109.814 69.411 103.984 69.411 103.984Z" fill="#E0E0E0"/>
<path d="M45.426 117.773V121.872C45.426 126.412 49.1409 130.127 53.6819 130.127H57.7803C62.3206 130.127 66.0355 126.412 66.0355 121.872V117.773H45.426Z" fill="#F5F5F5"/>
<path d="M133.054 155.933C133.054 160.687 138.379 164.578 144.887 164.578H150.761C157.27 164.578 162.595 160.687 162.595 155.933H133.054Z" fill="#E0E0E0"/>
<path d="M288.732 148.973C285.169 151.881 280.251 157.207 275.745 164.7C272.743 169.69 270.934 174.918 270.14 181.826C270.157 174.007 270.182 165.605 270.209 157.676C271.114 155.636 273.181 150.933 274.664 147.218C279.613 134.821 281.455 131.772 285.906 121.079C291.842 106.817 297.924 89.8939 296.183 91.2464C292.634 94.0018 279.033 119.469 277.563 123.115C272.507 135.654 271.098 144.794 270.223 153.614C270.25 146.167 270.28 139.329 270.308 134.052C270.399 116.843 270.692 111.289 270.835 109.576C271.385 108.705 272.035 107.691 272.413 107.144C275.608 102.525 276.84 98.5898 279.851 91.7C284.116 81.9372 287.79 64.604 286.716 65.4785C282.244 69.1186 278.717 76.9447 274.082 86.9169C269.448 96.8891 270.773 102.624 269.853 111.141C269.66 112.812 269.513 119.119 269.406 127.86C268.204 118.548 265.949 112.411 261.835 106.834C256.774 99.9749 251.879 95.3414 248.287 92.9213C244.695 90.5018 254.489 107.351 259.173 114.705C263.344 121.254 267.186 127.033 269.353 132.725C269.238 144.572 269.185 159.574 269.185 173.539C268.11 167.183 266.356 160.341 264.015 155.041C261.203 148.674 256.876 138.909 253.432 135.597C252.604 134.801 257.033 153.794 259.875 158.844C262.717 163.894 264.804 168.654 266.593 171.516C267.01 172.184 268.395 174.76 269.185 176.241C269.193 193.289 269.28 208.332 269.428 213.452H270.165C270.114 212.131 270.106 203.459 270.122 191.981C271.895 185.749 275.951 178.637 279.298 172.149C282.952 165.067 292.296 146.064 288.732 148.973Z" fill="#E0E0E0"/>
<path d="M280.459 223.897H259.146L257.537 203.004H282.068L280.459 223.897Z" fill="#F0F0F0"/>
<path d="M283.656 205.439H255.949L255.155 198.39H284.45L283.656 205.439Z" fill="#F5F5F5"/>
<path d="M84.4968 13.9706H46.3814V55.8239H84.4968V13.9706Z" fill="#E0E0E0"/>
<path d="M88.6251 13.9706H49.2545V55.8239H88.6251V13.9706Z" fill="#F5F5F5"/>
<path d="M85.3262 52.5255V17.2689L52.5522 17.2689L52.5522 52.5255L85.3262 52.5255Z" fill="white"/>
<path d="M77.3824 43.9806V25.8151L60.4967 25.8151V43.9806H77.3824Z" fill="#F5F5F5"/>
<path d="M278.835 18.8496H243.427V57.73H278.835V18.8496Z" fill="#E0E0E0"/>
<path d="M282.67 18.8496H246.096V57.73H282.67V18.8496Z" fill="#F5F5F5"/>
<path d="M279.606 54.6663V21.9141L249.16 21.9141V54.6663L279.606 54.6663Z" fill="white"/>
<path d="M264.383 47.7884C269.628 47.7884 273.881 43.5359 273.881 38.2902C273.881 33.0444 269.628 28.7919 264.383 28.7919C259.137 28.7919 254.884 33.0444 254.884 38.2902C254.884 43.5359 259.137 47.7884 264.383 47.7884Z" fill="#F5F5F5"/>
<path d="M124.093 38.9266H95.8181V69.974H124.093V38.9266Z" fill="#E0E0E0"/>
<path d="M127.156 38.9266H97.9499V69.974H127.156V38.9266Z" fill="#F5F5F5"/>
<path d="M124.709 67.5277V41.3735L100.397 41.3735V67.5277H124.709Z" fill="white"/>
<path d="M112.553 47.8386L105.904 59.3558H119.202L112.553 47.8386Z" fill="#F5F5F5"/>
<path d="M170 253.374C242.816 253.374 301.844 249.927 301.844 245.674C301.844 241.422 242.816 237.975 170 237.975C97.1842 237.975 38.1554 241.422 38.1554 245.674C38.1554 249.927 97.1842 253.374 170 253.374Z" fill="#F5F5F5"/>
<path d="M237.487 73.7664L230.742 71.0314C230.742 71.0314 221.841 87.2651 219.292 88.0845C215.822 89.1997 208.648 92.2998 204.384 92.8805C203.81 93.5524 202.862 95.6712 202.952 96.4437C208.672 98.3511 221.239 95.8181 223.929 93.8209C230.061 89.2656 237.487 73.7664 237.487 73.7664Z" fill="#E58A7B"/>
<path d="M239.564 70.0828C240.819 74.7333 234.006 84.0745 234.006 84.0745L225.056 79.054C225.056 79.054 226.724 75.2141 228.767 71.3034C232.066 64.9882 238.131 64.7754 239.564 70.0828Z" fill="#407BFF"/>
<path opacity="0.2" d="M239.564 70.0828C240.819 74.7333 234.006 84.0745 234.006 84.0745L225.056 79.054C225.056 79.054 226.724 75.2141 228.767 71.3034C232.066 64.9882 238.131 64.7754 239.564 70.0828Z" fill="black"/>
<path opacity="0.2" d="M228.624 81.0532L232.139 83.0239L232.754 72.235C230.714 73.8071 229.267 78.5379 228.624 81.0532Z" fill="black"/>
<path d="M233.69 66.5795C233.69 66.5795 226.741 82.0399 230.793 110.832C239.044 110.832 254.162 110.832 258.176 110.832C258.612 106.628 257.173 86.122 262.388 66.3156C262.388 66.3156 257.749 65.3738 253.289 65.1582C249.8 64.9896 244.741 64.8781 241.648 65.1589C237.571 65.5289 233.69 66.5795 233.69 66.5795Z" fill="#407BFF"/>
<path opacity="0.2" d="M233.69 66.5795C233.69 66.5795 226.741 82.0399 230.793 110.832C239.044 110.832 254.162 110.832 258.176 110.832C258.612 106.628 257.173 86.122 262.388 66.3156C262.388 66.3156 257.749 65.3738 253.289 65.1582C249.8 64.9896 244.741 64.8781 241.648 65.1589C237.571 65.5289 233.69 66.5795 233.69 66.5795Z" fill="black"/>
<path d="M227.34 246.289C227.297 247.019 237.679 247.611 250.529 247.611C263.379 247.611 273.831 247.019 273.873 246.289C273.916 245.559 263.534 244.967 250.684 244.967C237.834 244.967 227.383 245.559 227.34 246.289Z" fill="#E8ECF1"/>
<path d="M246.256 227.94L241.383 229.817L245.562 240.663L250.435 238.786L246.256 227.94Z" fill="#E58A7B"/>
<path d="M267.275 241.061H262.155L260.277 229.205H265.397L267.275 241.061Z" fill="#E58A7B"/>
<path d="M261.826 240.468H267.578C267.787 240.468 267.96 240.614 267.993 240.818L268.738 245.368C268.816 245.84 268.418 246.287 267.935 246.279C265.929 246.244 264.96 246.127 262.431 246.127C260.875 246.127 257.659 246.288 255.51 246.288C253.408 246.288 253.205 244.164 254.096 243.971C258.091 243.108 259.647 241.918 260.977 240.783C261.216 240.579 261.52 240.468 261.826 240.468Z" fill="#263238"/>
<path d="M244.781 238.676L250.235 237.09C250.439 237.031 250.649 237.119 250.74 237.302L252.761 241.379C252.97 241.801 252.723 242.332 252.249 242.461C250.274 243 248.946 243.337 246.473 244.056C244.764 244.552 243.026 245.362 241.337 245.9C240.169 246.273 237.423 246.288 236.001 246.288C233.9 246.288 233.431 244.072 234.332 243.97C236.612 243.715 236.918 243.833 238.177 243.202C240.258 242.158 241.867 241.294 243.668 239.407C243.983 239.079 244.351 238.801 244.781 238.676Z" fill="#263238"/>
<path d="M205.246 92.8315L199.613 90.4611L197.293 96.7021C197.293 96.7021 200.544 97.2917 204.257 96.7021L205.246 92.8315Z" fill="#E58A7B"/>
<path d="M195.426 90.308L195.277 94.4608L197.293 96.7021L199.613 90.461L195.426 90.308Z" fill="#E58A7B"/>
<path d="M246.274 227.928L241.4 229.809L243.558 235.398L248.432 233.517L246.274 227.928Z" fill="#CF6F64"/>
<path d="M265.398 229.208H260.276L261.247 235.319H266.369L265.398 229.208Z" fill="#CF6F64"/>
<path opacity="0.2" d="M229.924 103.044C230.022 104.274 230.141 105.531 230.287 106.824L250.649 100.214C253.829 99.263 256.596 97.2645 258.483 94.5329C258.56 92.7159 258.665 90.8086 258.818 88.8168C258.888 87.8458 258.972 86.853 259.063 85.8473C259.161 84.7994 259.272 83.7298 259.398 82.654L229.924 103.044Z" fill="black"/>
<path d="M236.572 80.7405L235.878 80.6582C236.282 77.265 238.815 74.5831 241.491 74.647L241.471 75.346C239.161 75.2787 236.935 77.6975 236.572 80.7405Z" fill="white"/>
<path d="M240.195 87.0196C240.157 87.0196 240.119 87.0189 240.08 87.0182L240.101 86.3192C242.439 86.4049 244.636 83.9671 244.999 80.9241L245.693 81.007C245.294 84.352 242.842 87.0196 240.195 87.0196Z" fill="white"/>
<path d="M252.904 52.0506C251.95 55.796 250.815 62.6586 253.289 65.1576C253.289 65.1576 251.561 68.9568 244.601 68.9568C238.241 68.9568 241.648 65.1576 241.648 65.1576C245.883 64.16 245.957 61.0613 245.4 58.1509L252.904 52.0506Z" fill="#E58A7B"/>
<path d="M249.845 54.54L245.404 58.1488C245.538 58.8376 245.633 59.536 245.642 60.2146C246.94 61.5073 249.546 58.2324 249.813 56.5617C249.946 55.7294 249.958 54.9283 249.845 54.54Z" fill="#CF6F64"/>
<path d="M237.772 52.0043C238.422 53.1698 239.571 53.8954 240.656 54.1368C242.289 54.5006 243.11 52.9985 242.659 51.4868C242.254 50.1262 240.917 48.2976 239.276 48.6111C237.659 48.9205 237.027 50.6715 237.772 52.0043Z" fill="#CF6F64"/>
<path d="M240.466 40.0166C237.923 41.1821 237.026 51.2849 240.224 52.7788C243.421 54.2721 245.283 37.81 240.466 40.0166Z" fill="#263238"/>
<path d="M253.68 46.4141C253.072 51.4855 252.972 54.47 250.258 57.0731C246.175 60.9885 240.051 58.6663 239.138 53.6037C238.316 49.047 239.449 41.5188 244.532 39.5005C249.54 37.5122 254.289 41.3426 253.68 46.4141Z" fill="#E58A7B"/>
<path d="M245.326 42.6449C249.088 41.6827 251.857 41.0271 250.869 44.1674C249.553 48.3507 247.974 52.4035 250.092 52.5926C251.38 52.7075 257.092 50.2833 256.367 47.8326C255.735 45.6974 258.39 45.1214 258.88 44.0327C260.643 40.1119 255.605 40.6212 256.501 38.2486C257.375 35.9387 252.443 32.0348 249.71 33.9422C245.286 37.0301 237.684 36.9859 241.681 31.9212C244.543 28.2941 239.436 29.0387 239.436 29.0387C239.436 29.0387 242.521 30.8686 237.329 33.6974C231.825 36.6949 236.863 44.81 245.326 42.6449Z" fill="#263238"/>
<path d="M255.643 52.0043C254.855 53.1698 253.622 53.8954 252.509 54.1368C250.833 54.5006 250.189 52.9985 250.816 51.4868C251.381 50.1262 252.933 48.2976 254.537 48.6111C256.117 48.9205 256.544 50.6715 255.643 52.0043Z" fill="#E58A7B"/>
<path d="M230.793 110.832C230.793 110.832 226.197 151.97 225.838 167.583C225.465 183.822 241.415 234.491 241.415 234.491L249.582 231.061C249.582 231.061 240.073 184.771 241.394 168.822C242.834 151.435 248.793 110.831 248.793 110.831H230.793V110.832Z" fill="#407BFF"/>
<path opacity="0.2" d="M242.215 122.127C238.554 129.73 241.021 144.76 243.005 153.671C243.76 147.381 244.654 140.555 245.507 134.237C245.423 124.524 244.668 117.027 242.215 122.127Z" fill="black"/>
<path d="M249.213 228.394C249.251 228.379 250.182 230.997 250.182 230.997L240.768 234.95L239.285 232.193L249.213 228.394Z" fill="#407BFF"/>
<path d="M240.507 110.832C240.507 110.832 244.023 149.958 246.353 164.616C248.905 180.667 258.93 234.136 258.93 234.136H268.307C268.307 234.136 262.688 181.963 261.627 166.071C260.475 148.822 258.176 110.832 258.176 110.832H240.507Z" fill="#407BFF"/>
<path d="M268.45 231.693C268.491 231.693 268.764 234.314 268.764 234.314H258.457L257.721 231.305L268.45 231.693Z" fill="#407BFF"/>
<path opacity="0.2" d="M264.858 228.596C264.814 228.596 264.776 228.562 264.772 228.518C264.721 228.043 259.654 180.94 258.701 166.662C257.666 151.167 255.586 116.81 255.565 116.464C255.562 116.416 255.599 116.374 255.647 116.372C255.649 116.372 255.651 116.372 255.652 116.372C255.698 116.372 255.737 116.408 255.74 116.454C255.76 116.799 257.84 151.156 258.875 166.65C259.828 180.926 264.894 228.025 264.945 228.499C264.95 228.547 264.916 228.59 264.868 228.595C264.864 228.596 264.861 228.596 264.858 228.596Z" fill="black"/>
<path d="M245.904 47.8319C245.88 48.2446 245.642 48.5799 245.372 48.5799C245.102 48.5799 244.903 48.2453 244.927 47.8319C244.951 47.4191 245.19 47.0839 245.46 47.0839C245.73 47.0839 245.929 47.4191 245.904 47.8319Z" fill="#263238"/>
<path d="M241.237 47.8319C241.212 48.2446 240.974 48.5799 240.704 48.5799C240.434 48.5799 240.235 48.2453 240.26 47.8319C240.284 47.4191 240.522 47.0839 240.792 47.0839C241.062 47.0839 241.261 47.4191 241.237 47.8319Z" fill="#263238"/>
<path d="M242.708 48.0372C242.708 48.0372 241.63 50.42 240.528 51.5692C241.219 52.2512 242.479 51.9391 242.479 51.9391L242.708 48.0372Z" fill="#DF5753"/>
<path d="M242.827 53.6717C242.761 53.6717 242.709 53.6173 242.713 53.5507C242.717 53.484 242.775 53.4296 242.842 53.4296C244.655 53.4296 245.575 52.1635 245.584 52.1506C245.625 52.0948 245.701 52.0785 245.754 52.1152C245.808 52.1519 245.819 52.2267 245.779 52.2832C245.738 52.3389 244.77 53.6717 242.827 53.6717Z" fill="#263238"/>
<path d="M246.735 46.5759C246.665 46.6031 246.586 46.599 246.52 46.5575C245.628 45.9959 244.797 46.3726 244.788 46.3773C244.674 46.4358 244.523 46.3848 244.472 46.2638C244.421 46.1427 244.48 45.9979 244.604 45.9401C244.648 45.919 245.689 45.4464 246.797 46.1434C246.907 46.2135 246.935 46.3624 246.858 46.4766C246.827 46.5229 246.783 46.5569 246.735 46.5759Z" fill="#263238"/>
<path d="M239.432 45.2193C239.399 45.2098 239.366 45.1928 239.34 45.167C239.244 45.0786 239.244 44.9256 239.34 44.8249C240.289 43.8219 241.389 43.9749 241.435 43.9817C241.565 43.996 241.651 44.1245 241.623 44.2571C241.595 44.389 241.467 44.4802 241.337 44.4611C241.3 44.4557 240.441 44.3462 239.683 45.1466C239.616 45.2186 239.517 45.2438 239.432 45.2193Z" fill="#263238"/>
<path d="M265.016 73.0082L257.942 71.1252C257.942 71.1252 251.006 88.1987 248.556 89.3132C245.222 90.8303 236.781 96.0772 233.193 98.6074C232.994 99.4534 233.15 101.708 233.602 102.322C239.702 101.214 251.438 96.7021 253.885 94.4084C259.466 89.1799 265.016 73.0082 265.016 73.0082Z" fill="#E58A7B"/>
<path d="M260.08 241.363C259.691 241.363 259.33 241.296 259.11 241.102C258.935 240.948 258.864 240.732 258.897 240.461C258.922 240.259 259.034 240.163 259.125 240.118C259.702 239.828 261.3 240.842 261.48 240.959C261.519 240.985 261.538 241.033 261.528 241.082C261.517 241.129 261.479 241.168 261.431 241.179C261.07 241.265 260.554 241.363 260.08 241.363ZM259.382 240.303C259.319 240.303 259.265 240.313 259.223 240.334C259.19 240.351 259.149 240.382 259.139 240.476C259.115 240.669 259.16 240.813 259.277 240.916C259.543 241.152 260.21 241.184 261.089 241.008C260.53 240.674 259.774 240.303 259.382 240.303Z" fill="#407BFF"/>
<path d="M261.402 241.182C261.383 241.182 261.363 241.178 261.345 241.168C260.832 240.88 259.874 239.758 260.016 239.187C260.041 239.084 260.128 238.905 260.42 238.87C260.611 238.846 260.781 238.899 260.928 239.025C261.494 239.511 261.529 240.989 261.531 241.051C261.532 241.095 261.508 241.138 261.47 241.162C261.449 241.176 261.425 241.182 261.402 241.182ZM260.491 239.107C260.473 239.107 260.455 239.109 260.436 239.111C260.278 239.13 260.259 239.203 260.252 239.233C260.167 239.571 260.771 240.419 261.274 240.819C261.239 240.387 261.126 239.525 260.764 239.214C260.68 239.142 260.591 239.107 260.491 239.107Z" fill="#407BFF"/>
<path d="M242.024 240.517C241.523 240.638 241.046 240.674 240.741 240.509C240.547 240.404 240.436 240.228 240.41 239.99C240.394 239.847 240.443 239.722 240.548 239.629C241.096 239.142 243.314 239.666 243.566 239.727C243.615 239.739 243.649 239.782 243.651 239.833C243.654 239.885 243.624 239.933 243.575 239.956C243.164 240.142 242.579 240.382 242.024 240.517ZM240.918 239.709C240.825 239.731 240.751 239.763 240.703 239.806C240.66 239.844 240.645 239.888 240.651 239.95C240.669 240.112 240.74 240.225 240.866 240.294C241.227 240.491 242.066 240.335 243.145 239.884C242.387 239.725 241.395 239.593 240.918 239.709Z" fill="#407BFF"/>
<path d="M243.553 239.962C243.536 239.967 243.519 239.967 243.502 239.965C242.843 239.842 241.435 239.06 241.422 238.475C241.419 238.338 241.484 238.15 241.806 238.039C242.04 237.951 242.281 237.969 242.506 238.08C243.246 238.444 243.632 239.75 243.648 239.805C243.66 239.846 243.649 239.89 243.619 239.924C243.6 239.943 243.577 239.956 243.553 239.962ZM241.945 238.245C241.922 238.25 241.898 238.258 241.873 238.266C241.662 238.34 241.665 238.426 241.665 238.455C241.673 238.806 242.65 239.452 243.34 239.669C243.203 239.294 242.872 238.537 242.388 238.298C242.243 238.226 242.096 238.208 241.945 238.245Z" fill="#407BFF"/>
<path d="M233.769 98.2056L226.678 101.47L225.855 103.47L228.476 105.233C228.476 105.233 233.366 104.701 234.76 101.559L233.769 98.2056Z" fill="#E58A7B"/>
<path d="M234.071 102.438C233.628 99.8036 232.761 98.602 232.753 98.5905L233.871 97.752C233.915 97.8098 234.942 99.197 235.449 102.206L234.071 102.438Z" fill="#263238"/>
<path d="M235.279 99.1705C235.509 99.7397 235.139 100.425 234.453 100.703C233.767 100.98 233.025 100.743 232.795 100.174C232.565 99.605 232.935 98.9196 233.621 98.6422C234.306 98.3654 235.049 98.6014 235.279 99.1705Z" fill="#263238"/>
<path d="M221.887 104.105L222.829 105.059L229.191 102.338L226.678 101.47L221.887 104.105Z" fill="#E58A7B"/>
<path opacity="0.2" d="M249.213 228.394C249.251 228.379 250.182 230.997 250.182 230.997L240.768 234.95L239.285 232.193L249.213 228.394Z" fill="black"/>
<path opacity="0.2" d="M268.45 231.693C268.491 231.693 268.764 234.314 268.764 234.314H258.457L257.721 231.305L268.45 231.693Z" fill="black"/>
<path d="M266.86 71.0511C268.731 77.0807 261.447 85.3175 261.447 85.3175L251.35 81.1967C251.35 81.1967 252.773 76.8161 255.48 70.9471C258.558 64.2769 264.972 64.9658 266.86 71.0511Z" fill="#407BFF"/>
<path opacity="0.2" d="M266.86 71.0511C268.731 77.0807 261.447 85.3175 261.447 85.3175L251.35 81.1967C251.35 81.1967 252.773 76.8161 255.48 70.9471C258.558 64.2769 264.972 64.9658 266.86 71.0511Z" fill="black"/>
<path d="M166.514 10.6202H162.171V11.3193H166.514V10.6202Z" fill="#407BFF"/>
<path d="M222.77 38.3374L222.244 50.0054L222.942 50.0368L223.468 38.3688L222.77 38.3374Z" fill="#407BFF"/>
<path d="M221.417 13.7645H141.178L133.708 180.853H213.947L221.417 13.7645Z" fill="#407BFF"/>
<path opacity="0.56" d="M219.021 16.0575H138.782L131.313 183.146H211.552L219.021 16.0575Z" fill="#FAFAFA"/>
<path opacity="0.07" d="M216.626 18.3505H136.387L128.917 185.439H209.156L216.626 18.3505Z" fill="#407BFF"/>
<path d="M207.492 91.2247H139.005L138.433 104.013H206.921L207.492 91.2247Z" fill="white"/>
<path d="M176.674 81.8978H139.422L139.166 87.6193H176.418L176.674 81.8978Z" fill="#407BFF"/>
<path d="M205.95 125.73H137.462L136.89 138.518H205.378L205.95 125.73Z" fill="white"/>
<path opacity="0.47" d="M193.391 155.777H147.335L146.65 171.104H192.705L193.391 155.777Z" fill="#407BFF"/>
<path d="M190.31 173.477H144.255C144.233 173.477 144.212 173.468 144.197 173.452C144.182 173.437 144.174 173.415 144.175 173.393L144.86 158.067C144.862 158.023 144.898 157.989 144.941 157.989H190.996C191.017 157.989 191.039 157.999 191.054 158.014C191.069 158.03 191.077 158.052 191.076 158.073L190.39 173.4C190.389 173.443 190.353 173.477 190.31 173.477ZM144.34 173.316H190.233L190.91 158.151H145.017L144.34 173.316Z" fill="white"/>
<path d="M168.625 116.404H137.879L137.623 122.125H168.369L168.625 116.404Z" fill="#407BFF"/>
<path d="M192.512 49.9304C192.341 53.7594 190.953 57.2955 188.728 60.1678C185.368 64.5211 180.105 67.3513 174.313 67.3513C168.52 67.3513 163.517 64.5211 160.547 60.1678C158.579 57.2955 157.507 53.7601 157.678 49.9304C158.109 40.3084 166.255 32.5101 175.87 32.5101C185.492 32.5095 192.942 40.3084 192.512 49.9304Z" fill="white"/>
<path d="M194.15 36.1563C194.105 37.1736 193.736 38.1133 193.144 38.8763C192.252 40.033 190.854 40.785 189.314 40.785C187.775 40.785 186.446 40.033 185.656 38.8763C185.133 38.1133 184.848 37.1736 184.894 36.1563C185.008 33.5995 187.173 31.5275 189.728 31.5275C192.285 31.5275 194.264 33.5995 194.15 36.1563Z" fill="#407BFF"/>
<path d="M146.38 97.6187C146.33 98.7502 145.371 99.6676 144.24 99.6676C143.108 99.6676 142.232 98.7502 142.282 97.6187C142.332 96.4872 143.291 95.5699 144.422 95.5699C145.555 95.5692 146.431 96.4872 146.38 97.6187Z" fill="#263238"/>
<path d="M155.551 97.6187C155.501 98.7502 154.542 99.6676 153.411 99.6676C152.279 99.6676 151.403 98.7502 151.453 97.6187C151.503 96.4872 152.462 95.5699 153.594 95.5699C154.725 95.5699 155.602 96.4872 155.551 97.6187Z" fill="#263238"/>
<path d="M164.723 97.6187C164.673 98.7502 163.714 99.6676 162.583 99.6676C161.451 99.6676 160.575 98.7502 160.625 97.6187C160.675 96.4872 161.634 95.5699 162.766 95.5699C163.897 95.5692 164.774 96.4872 164.723 97.6187Z" fill="#263238"/>
<path d="M144.838 132.124C144.788 133.255 143.829 134.173 142.697 134.173C141.566 134.173 140.689 133.255 140.74 132.124C140.79 130.992 141.749 130.074 142.88 130.074C144.012 130.075 144.888 130.992 144.838 132.124Z" fill="#263238"/>
<path d="M154.009 132.124C153.959 133.255 153 134.173 151.868 134.173C150.737 134.173 149.86 133.255 149.911 132.124C149.961 130.992 150.92 130.074 152.051 130.074C153.184 130.075 154.059 130.992 154.009 132.124Z" fill="#263238"/>
<path d="M163.18 132.124C163.13 133.255 162.171 134.173 161.04 134.173C159.908 134.173 159.032 133.255 159.082 132.124C159.132 130.992 160.091 130.074 161.223 130.074C162.354 130.074 163.231 130.992 163.18 132.124Z" fill="#263238"/>
<path d="M172.352 132.124C172.302 133.255 171.343 134.173 170.211 134.173C169.08 134.173 168.203 133.255 168.254 132.124C168.304 130.992 169.263 130.074 170.394 130.074C171.526 130.075 172.402 130.992 172.352 132.124Z" fill="#263238"/>
<path d="M181.523 132.124C181.473 133.255 180.514 134.173 179.383 134.173C178.251 134.173 177.375 133.255 177.425 132.124C177.475 130.992 178.434 130.074 179.565 130.074C180.697 130.075 181.574 130.992 181.523 132.124Z" fill="#263238"/>
<path d="M182.401 44.1075C182.226 47.9985 178.931 51.153 175.04 51.153C171.149 51.153 168.135 47.9985 168.309 44.1075C168.483 40.2159 171.778 37.062 175.67 37.062C179.561 37.062 182.575 40.2165 182.401 44.1075Z" fill="#407BFF"/>
<path d="M188.728 60.167C185.368 64.5204 180.105 67.3505 174.313 67.3505C168.52 67.3505 163.517 64.5204 160.547 60.167C163.852 56.8758 169.084 54.7379 174.877 54.7379C180.676 54.7379 185.717 56.8758 188.728 60.167Z" fill="#407BFF"/>
<path opacity="0.1" d="M182.401 44.1075C182.226 47.9985 178.931 51.153 175.04 51.153C171.149 51.153 168.135 47.9985 168.309 44.1075C168.483 40.2159 171.778 37.062 175.67 37.062C179.561 37.062 182.575 40.2165 182.401 44.1075Z" fill="white"/>
<path opacity="0.1" d="M188.728 60.167C185.368 64.5204 180.105 67.3505 174.313 67.3505C168.52 67.3505 163.517 64.5204 160.547 60.167C163.852 56.8758 169.084 54.7379 174.877 54.7379C180.676 54.7379 185.717 56.8758 188.728 60.167Z" fill="white"/>
<path d="M88.6767 107.094C88.0327 108.506 87.3548 110.06 86.7598 111.576C86.16 113.106 85.5616 114.637 85.04 116.19C84.0268 119.296 83.0769 122.431 82.609 125.575L82.454 126.576C82.4417 126.696 82.4506 126.868 82.5036 127.082C82.6029 127.514 82.8722 128.092 83.251 128.659C84.0166 129.807 85.1019 130.968 86.2722 132.046C87.4398 133.142 88.708 134.19 90.0258 135.185C91.3307 136.188 92.707 137.171 94.0534 138.092L92.7859 140.478C89.5505 139.063 86.5374 137.372 83.6188 135.25C82.184 134.157 80.7669 132.979 79.5116 131.388C78.8928 130.586 78.2842 129.679 77.8858 128.483C77.6926 127.886 77.558 127.21 77.5573 126.48C77.5621 126.312 77.5709 126.076 77.5825 125.963L77.6158 125.625L77.6838 124.949C78.0537 121.345 78.852 117.88 79.904 114.519C80.4344 112.841 81.0002 111.18 81.6462 109.55C82.3058 107.909 82.9565 106.334 83.7814 104.683L88.6767 107.094Z" fill="#E58A7B"/>
<path d="M93.1016 137.686L97.9065 135.249L96.6655 140.529C96.6655 140.529 93.3661 141.451 91.8314 139.85L93.1016 137.686Z" fill="#E58A7B"/>
<path d="M102.307 136.116L101.028 140.481L96.6647 140.53L97.9064 135.249L102.307 136.116Z" fill="#E58A7B"/>
<path d="M109.094 81.6333C109.094 81.6333 109.511 83.166 110.172 84.3213C109.604 84.8517 109.094 84.6675 109.094 84.6675V81.6333Z" fill="#DF5753"/>
<path d="M108.952 81.6734C109.233 81.6734 109.461 81.3245 109.461 80.8941C109.461 80.4638 109.233 80.1149 108.952 80.1149C108.67 80.1149 108.442 80.4638 108.442 80.8941C108.442 81.3245 108.67 81.6734 108.952 81.6734Z" fill="#263238"/>
<path d="M108.827 80.1387L109.861 79.8408C109.861 79.8408 109.33 80.6487 108.827 80.1387Z" fill="#263238"/>
<path d="M95.81 86.6211C96.4308 89.7865 97.0503 95.5869 94.8348 97.699C94.8348 97.699 95.7005 100.91 101.582 100.91C108.051 100.91 104.674 97.699 104.674 97.699C101.144 96.8558 101.235 94.2371 101.85 91.7775L95.81 86.6211Z" fill="#E58A7B"/>
<path d="M94.0936 79.4172C94.418 84.7022 94.4425 86.9455 97.1122 89.658C101.127 93.738 107.547 92.1835 108.808 86.9088C109.943 82.1603 109.222 74.3158 104.049 72.2126C98.9516 70.1406 93.7686 74.1322 94.0936 79.4172Z" fill="#E58A7B"/>
<path d="M94.6145 73.4373C91.9646 74.4036 88.4292 73.6848 89.8164 81.8645C91.2852 90.5257 89.0242 93.3749 89.0242 93.3749C89.0242 93.3749 99.0828 95.5176 109.351 93.247C109.351 93.247 106.216 87.7649 107.096 83.7644C108.218 78.6624 107.328 76.7768 107.328 76.7768C107.328 76.7768 98.3409 72.0786 94.6145 73.4373Z" fill="#263238"/>
<path d="M105.835 82.1712C105.824 83.2184 106.192 84.2731 106.668 85.0054C107.384 86.1077 108.234 85.6589 108.446 84.5145C108.638 83.485 108.496 81.6707 107.579 80.9669C106.676 80.2747 105.848 80.9744 105.835 82.1712Z" fill="#E58A7B"/>
<path d="M92.3127 74.3628C91.5477 72.2242 95.1816 68.935 102.864 70.3032C110.547 71.6713 110.884 78.0606 110.884 78.0606L109.33 76.2158L109.4 78.1586L101.504 79.6756L92.3127 74.3628Z" fill="#263238"/>
<path d="M92.9642 98.0587C92.8581 97.4052 93.2974 96.7898 93.9502 96.6824C96.3424 96.2873 101.78 95.4876 104.517 95.8664C106.55 96.1479 107.088 97.3352 107.173 98.3062C107.237 99.0264 106.642 99.6336 105.92 99.601L94.095 99.0665C93.5272 99.0406 93.0546 98.6204 92.9642 98.0587Z" fill="#407BFF"/>
<path opacity="0.6" d="M92.9642 98.0587C92.8581 97.4052 93.2974 96.7898 93.9502 96.6824C96.3424 96.2873 101.78 95.4876 104.517 95.8664C106.55 96.1479 107.088 97.3352 107.173 98.3062C107.237 99.0264 106.642 99.6336 105.92 99.601L94.095 99.0665C93.5272 99.0406 93.0546 98.6204 92.9642 98.0587Z" fill="black"/>
<path d="M99.7968 216.859L104.179 219.901L111.518 209.955L107.135 206.913L99.7968 216.859Z" fill="#E58A7B"/>
<path d="M89.5661 216.658L94.2023 219.298L100.697 208.779L96.0615 206.139L89.5661 216.658Z" fill="#E58A7B"/>
<path d="M111.515 209.957L107.733 215.085L103.349 212.041L107.131 206.914L111.515 209.957Z" fill="#CF6F64"/>
<path d="M96.0588 206.141L100.696 208.782L97.346 214.203L92.7084 211.562L96.0588 206.141Z" fill="#CF6F64"/>
<path d="M103.495 131.264C103.495 131.264 120.617 152.844 117.405 173.48C114.81 190.148 99.7839 212.718 99.7839 212.718L92.7187 209.207C92.7187 209.207 100.395 194.207 105.436 178.307C107.55 171.639 106.649 164.293 102.697 158.521C94.0236 145.853 80.1278 153.39 89.4751 131.265L103.495 131.264Z" fill="#407BFF"/>
<path opacity="0.6" d="M103.495 131.264C103.495 131.264 120.617 152.844 117.405 173.48C114.81 190.148 99.7839 212.718 99.7839 212.718L92.7187 209.207C92.7187 209.207 100.395 194.207 105.436 178.307C107.55 171.639 106.649 164.293 102.697 158.521C94.0236 145.853 80.1278 153.39 89.4751 131.265L103.495 131.264Z" fill="black"/>
<path opacity="0.4" d="M111.893 145.131L109.406 142.657C109.406 142.853 114.228 172.614 115.583 180.978C116.4 178.414 117.029 175.884 117.407 173.48C118.979 163.376 115.673 153.042 111.893 145.131Z" fill="black"/>
<path d="M111.142 131.264C111.142 131.264 131.759 158.383 132.339 174.645C132.825 188.271 109.882 214.592 109.882 214.592L103.221 210.283C103.221 210.283 116.637 191.571 120.015 176.275C118.727 161.135 91.086 131.264 91.086 131.264H111.142V131.264Z" fill="#407BFF"/>
<path opacity="0.6" d="M111.142 131.264C111.142 131.264 131.759 158.383 132.339 174.645C132.825 188.271 109.882 214.592 109.882 214.592L103.221 210.283C103.221 210.283 116.637 191.571 120.015 176.275C118.727 161.135 91.086 131.264 91.086 131.264H111.142V131.264Z" fill="black"/>
<path d="M85.6343 98.9115C83.4264 99.4323 81.3163 107.447 81.3163 107.447L89.9272 113.196C89.9272 113.196 92.7968 106.861 91.7951 104.086C90.7513 101.196 88.4223 98.2539 85.6343 98.9115Z" fill="#407BFF"/>
<path opacity="0.2" d="M87.3194 104.069L86.7177 111.051L89.9232 113.197C89.9232 113.197 91.4253 109.878 91.8727 106.985L87.3194 104.069Z" fill="black"/>
<path d="M113.691 99.0658C113.691 99.0658 116.232 99.9607 111.142 131.265C102.544 131.265 93.6585 131.265 89.4751 131.265C89.8389 122.446 89.8491 117.008 85.6345 98.9115C85.6345 98.9115 90.1741 97.9241 94.8349 97.699C98.481 97.5236 101.468 97.4066 104.674 97.6997C108.899 98.0853 113.691 99.0658 113.691 99.0658Z" fill="#407BFF"/>
<path d="M115.892 104.037C116.383 105.393 116.902 106.861 117.443 108.27C117.962 109.7 118.5 111.127 119.056 112.548L120.723 116.819L121.145 117.887L121.356 118.421L121.462 118.687C121.481 118.735 121.477 118.731 121.47 118.726C121.441 118.713 121.416 118.578 120.994 118.302C120.788 118.173 120.441 118.049 120.106 118.043C119.77 118.03 119.503 118.113 119.35 118.179C119.043 118.325 119.039 118.389 119.046 118.378C119.065 118.368 119.128 118.308 119.198 118.224C119.495 117.867 119.854 117.252 120.169 116.64C120.491 116.016 120.794 115.35 121.097 114.674C121.699 113.319 122.246 111.904 122.803 110.488C123.354 109.067 123.873 107.626 124.387 106.18L125.935 101.84L128.555 102.5C128.036 105.605 127.366 108.645 126.567 111.696C126.177 113.225 125.725 114.74 125.209 116.27C124.952 117.037 124.664 117.801 124.334 118.58C123.99 119.366 123.65 120.14 123.042 121.04C122.882 121.268 122.701 121.509 122.449 121.774C122.182 122.035 121.874 122.35 121.21 122.649C120.879 122.791 120.42 122.917 119.889 122.896C119.361 122.881 118.825 122.693 118.455 122.463C117.701 121.982 117.441 121.523 117.218 121.179C117.114 121.007 117.026 120.829 116.965 120.7L116.836 120.436L116.577 119.908L116.063 118.852C115.391 117.437 114.733 116.015 114.109 114.577C113.492 113.135 112.89 111.685 112.307 110.225C111.748 108.742 111.196 107.305 110.705 105.727L115.892 104.037Z" fill="#E58A7B"/>
<path d="M113.691 99.0658C116.296 99.686 119.222 107.381 119.222 107.381L111.482 113.976C111.482 113.976 106.466 105.586 107.481 102.815C108.537 99.9301 110.289 98.2552 113.691 99.0658Z" fill="#407BFF"/>
<path d="M127.144 99.4412L129.86 97.1693L131.75 100.113L130.358 102.571C130.358 102.571 128.141 104.6 126.179 103.568C125.545 102.131 125.939 100.449 127.144 99.4412Z" fill="#E58A7B"/>
<path d="M134.791 97.1761L134.588 97.9166L130.284 98.6395L129.86 97.1693L134.791 97.1761Z" fill="#E58A7B"/>
<path d="M110.433 214.949L102.668 209.926L104.059 207.508L112.785 212.873L110.433 214.949Z" fill="#407BFF"/>
<path d="M97.2285 218.942C96.611 218.942 95.7984 218.551 95.3061 218.277C95.2619 218.253 95.2367 218.205 95.2422 218.154C95.2469 218.104 95.2816 218.062 95.3292 218.045C95.5387 217.979 97.3808 217.415 97.9024 217.853C97.9846 217.922 98.0764 218.05 98.0472 218.263C98.0091 218.545 97.8799 218.744 97.6637 218.852C97.5386 218.914 97.3903 218.942 97.2285 218.942ZM95.6991 218.2C96.5437 218.63 97.2237 218.789 97.5508 218.626C97.6902 218.557 97.7704 218.427 97.7976 218.229C97.8119 218.122 97.7745 218.075 97.7398 218.047C97.4658 217.816 96.4444 217.996 95.6991 218.2Z" fill="#263238"/>
<path d="M95.368 218.292C95.334 218.292 95.3013 218.279 95.2775 218.254C95.2462 218.221 95.2347 218.175 95.2469 218.132C95.2646 218.069 95.6889 216.592 96.3873 216.256C96.5736 216.166 96.7626 216.162 96.9476 216.239C97.2414 216.362 97.2706 216.577 97.2604 216.693C97.2128 217.305 95.9664 218.149 95.3979 218.288C95.3884 218.291 95.3782 218.292 95.368 218.292ZM96.6858 216.438C96.6232 216.438 96.56 216.453 96.4961 216.484C96.0799 216.685 95.7304 217.482 95.5631 217.966C96.1615 217.715 96.9782 217.047 97.0074 216.674C97.0122 216.614 96.9986 216.535 96.8483 216.472C96.7946 216.449 96.7402 216.438 96.6858 216.438Z" fill="#263238"/>
<path d="M106.942 221.881C106.177 221.881 105.109 220.897 104.525 220.292C104.487 220.253 104.479 220.195 104.502 220.147C104.527 220.1 104.588 220.072 104.632 220.078C104.901 220.113 107.266 220.433 107.6 221.101C107.664 221.23 107.658 221.367 107.584 221.498C107.459 221.719 107.277 221.845 107.046 221.874C107.012 221.878 106.978 221.881 106.942 221.881ZM104.972 220.383C105.832 221.218 106.583 221.681 107.014 221.623C107.165 221.604 107.28 221.523 107.365 221.373C107.397 221.316 107.4 221.266 107.373 221.213C107.192 220.85 105.929 220.537 104.972 220.383Z" fill="#263238"/>
<path d="M105.047 220.362C104.872 220.362 104.716 220.351 104.593 220.328C104.549 220.32 104.513 220.289 104.497 220.248C104.482 220.206 104.489 220.158 104.518 220.123C104.557 220.077 105.477 218.967 106.346 218.891C106.618 218.87 106.848 218.942 107.046 219.111C107.313 219.34 107.294 219.544 107.232 219.675C107.016 220.128 105.841 220.362 105.047 220.362ZM104.872 220.107C105.631 220.149 106.846 219.897 107.004 219.566C107.018 219.538 107.058 219.454 106.882 219.303C106.735 219.178 106.565 219.125 106.368 219.143C105.798 219.193 105.161 219.798 104.872 220.107Z" fill="#263238"/>
<path d="M95.5543 217.577L89.7865 215.946C89.5764 215.887 89.3649 215.984 89.2779 216.181L87.331 220.558C87.129 221.012 87.4092 221.575 87.8961 221.704C89.9164 222.238 90.9187 222.393 93.4551 223.111C95.0157 223.552 97.2495 224.359 99.4044 224.967C101.512 225.563 102.276 223.478 101.434 223.031C97.6548 221.029 97.3569 219.656 96.3233 218.135C96.137 217.86 95.8616 217.664 95.5543 217.577Z" fill="#407BFF"/>
<path d="M104.682 219.498L99.7587 216.08C99.5791 215.955 99.3479 215.979 99.2011 216.136L95.9357 219.642C95.5971 220.006 95.6793 220.629 96.0975 220.909C97.8343 222.071 98.7319 222.544 100.897 224.048C102.229 224.973 104.888 227.023 106.727 228.3C108.527 229.55 109.927 227.827 109.276 227.13C106.355 224.008 105.71 222.051 105.228 220.275C105.14 219.956 104.944 219.679 104.682 219.498Z" fill="#407BFF"/>
<path d="M100.691 213.169L91.8123 208.757L92.7316 206.354L102.208 210.999L100.691 213.169Z" fill="#407BFF"/>
<path d="M89.1507 129.993L88.3993 131.932C88.3231 132.082 88.5013 132.236 88.7522 132.236H111.249C111.444 132.236 111.606 132.14 111.618 132.018L111.813 130.079C111.827 129.944 111.657 129.83 111.444 129.83H89.5029C89.3425 129.83 89.1997 129.896 89.1507 129.993Z" fill="#407BFF"/>
<path opacity="0.4" d="M89.1507 129.993L88.3993 131.932C88.3231 132.082 88.5013 132.236 88.7522 132.236H111.249C111.444 132.236 111.606 132.14 111.618 132.018L111.813 130.079C111.827 129.944 111.657 129.83 111.444 129.83H89.5029C89.3425 129.83 89.1997 129.896 89.1507 129.993Z" fill="white"/>
<path d="M92.6887 132.446H92.1012C91.9842 132.446 91.8951 132.386 91.9033 132.312L92.1787 129.793C92.1869 129.719 92.2889 129.659 92.4065 129.659H92.994C93.111 129.659 93.2001 129.719 93.1919 129.793L92.9165 132.312C92.9083 132.386 92.8057 132.446 92.6887 132.446Z" fill="#407BFF"/>
<path d="M106.565 132.446H105.978C105.861 132.446 105.772 132.386 105.78 132.312L106.055 129.793C106.064 129.72 106.166 129.659 106.283 129.659H106.871C106.988 129.659 107.077 129.72 107.069 129.793L106.793 132.312C106.785 132.386 106.682 132.446 106.565 132.446Z" fill="#407BFF"/>
<path d="M92.1713 247.612C102.233 247.612 110.389 247.02 110.389 246.29C110.389 245.56 102.233 244.968 92.1713 244.968C82.1098 244.968 73.9534 245.56 73.9534 246.29C73.9534 247.02 82.1098 247.612 92.1713 247.612Z" fill="#F5F5F5"/>
<path d="M103.274 244.425C100.051 243.489 96.5029 242.283 94.3079 241.001C94.2467 240.966 94.1821 240.94 94.1202 240.908V226.336H100.603C101.676 226.336 102.545 225.467 102.545 224.394C102.545 223.323 101.676 222.454 100.603 222.454H94.1202V155.934H90.2381V222.454H83.755C82.6833 222.454 81.8143 223.323 81.8143 224.394C81.8143 225.467 82.6833 226.336 83.755 226.336H90.2381V240.907C90.1762 240.94 90.1116 240.965 90.0504 241.001C87.8554 242.283 84.3078 243.488 81.0846 244.424C80.0272 244.731 80.2503 246.288 81.3512 246.288H92.1788H103.006C104.108 246.289 104.331 244.731 103.274 244.425Z" fill="#E0E0E0"/>
<path d="M104.271 163.401H80.087C78.1497 163.401 76.5646 161.815 76.5646 159.878V152.688C76.5646 150.751 78.1497 149.166 80.087 149.166H104.271C106.208 149.166 107.794 150.751 107.794 152.688V159.878C107.794 161.815 106.208 163.401 104.271 163.401Z" fill="#407BFF"/>
<path d="M79.8646 163.401V164.638C79.8646 165.658 80.9751 166.493 82.3317 166.493H102.027C103.383 166.493 104.494 165.659 104.494 164.638V163.401H79.8646Z" fill="#407BFF"/>
<path opacity="0.3" d="M79.8646 163.401V164.638C79.8646 165.658 80.9751 166.493 82.3317 166.493H102.027C103.383 166.493 104.494 165.659 104.494 164.638V163.401H79.8646Z" fill="white"/>
</svg>
