<svg width="324" height="208" viewBox="0 0 324 208" fill="none" xmlns="http://www.w3.org/2000/svg">
<path d="M317.829 171.285C304.141 192.049 280.672 204.254 255.801 204.254H49.3827C7.89277 204.254 -15.3729 155.743 11.5344 128.428C38.4421 101.112 14.675 77.7821 56.1786 55.8773C96.3871 34.6561 110.115 79.8907 147.156 50.2928C184.198 20.6949 238.126 23.4871 249.974 53.6434C261.822 83.7997 259.03 94.4124 284.16 101.113C309.29 107.813 333.862 145.788 318.784 169.801C318.47 170.302 318.152 170.796 317.829 171.285Z" fill="#407BFF"/>
<path d="M308.653 179.702C286.908 181.546 272.249 222.307 217.888 197.807C217.888 197.807 223.857 180.013 250.597 168.922C277.336 157.831 308.653 179.702 308.653 179.702Z" fill="#CDDCF4"/>
<path d="M225.311 194.755C230.986 191.804 236.874 189.261 242.885 187.048C244.381 186.473 245.898 185.956 247.419 185.453C248.934 184.927 250.468 184.463 252 183.989C253.527 183.497 255.081 183.097 256.63 182.678C257.405 182.471 258.177 182.253 258.955 182.057L261.296 181.495L263.643 180.957L266.007 180.492L268.371 180.028C269.159 179.877 269.955 179.759 270.749 179.639C272.339 179.405 273.922 179.138 275.523 178.985C277.122 178.819 278.712 178.588 280.322 178.528C286.725 178.063 293.201 178.169 299.515 179.237C293.119 179.082 286.778 179.461 280.488 180.236L279.308 180.37L278.133 180.551L275.782 180.894C274.212 181.095 272.657 181.41 271.099 181.692C270.321 181.844 269.537 181.953 268.762 182.115L266.435 182.598L264.108 183.081L261.796 183.636L259.478 184.165C258.707 184.35 257.942 184.559 257.174 184.754L254.87 185.349C254.102 185.544 253.344 185.783 252.577 185.984C251.047 186.404 249.513 186.814 247.997 187.286C246.477 187.748 244.949 188.181 243.435 188.666C237.365 190.558 231.347 192.64 225.311 194.755Z" fill="#B0BDD1"/>
<path d="M311.315 110.336C284.782 129.302 297.056 192.862 208.511 202.87C208.511 202.87 202.601 175.451 228.493 140.793C254.385 106.135 311.315 110.336 311.315 110.336Z" fill="#DBE9FF"/>
<path d="M214.402 195.212C218.264 186.845 223.03 178.888 228.393 171.356C233.74 163.808 239.735 156.706 246.265 150.128C252.803 143.562 259.887 137.508 267.553 132.281C275.195 127.056 283.44 122.56 292.233 119.759C284.072 124.039 276.508 129.125 269.326 134.704C262.169 140.314 255.403 146.399 248.991 152.843C242.576 159.284 236.53 166.094 230.776 173.165C225.039 180.255 219.648 187.635 214.402 195.212Z" fill="#CDDCF4"/>
<path d="M25.0919 174.037C46.6541 177.408 58.4056 219.1 114.357 198.489C114.357 198.489 109.655 180.318 83.7636 167.371C57.8715 154.425 25.0919 174.037 25.0919 174.037Z" fill="#CDDCF4"/>
<path d="M107.167 194.922C101.295 192.386 95.4399 189.886 89.5175 187.572C88.042 186.981 86.5474 186.441 85.0645 185.873C83.5852 185.296 82.0839 184.778 80.5872 184.252C79.8358 183.997 79.0974 183.706 78.3439 183.458L76.0884 182.701C75.3359 182.452 74.587 182.19 73.8313 181.952L71.5569 181.26L69.2894 180.545L67.0028 179.899L64.7158 179.252C63.9533 179.037 63.1786 178.873 62.414 178.666C60.8795 178.275 59.3508 177.852 57.7983 177.54L55.4776 177.032L54.3183 176.77L53.1511 176.553C46.9315 175.336 40.6318 174.513 34.2411 174.216C40.615 173.595 47.082 173.946 53.4369 174.861C55.0377 175.034 56.6075 175.376 58.1909 175.654C59.7775 175.92 61.3384 176.298 62.9076 176.643C63.6912 176.819 64.4763 176.992 65.2526 177.198L67.5775 177.828L69.9024 178.458L72.2058 179.16L74.5018 179.886C75.2643 180.135 76.0189 180.409 76.7778 180.669C78.2928 181.196 79.8147 181.705 81.3034 182.303C82.7985 182.884 84.2962 183.455 85.7702 184.085C87.2526 184.695 88.7287 185.317 90.1806 185.996C96.0208 188.626 101.714 191.579 107.167 194.922Z" fill="#B0BDD1"/>
<path d="M39.4257 107.416C63.3181 127.179 47.423 186.634 130.723 202.052C130.723 202.052 138.164 176.445 115.93 141.845C93.6954 107.244 39.4257 107.416 39.4257 107.416Z" fill="#DBE9FF"/>
<path d="M125.649 194.396C121.146 186.876 116.511 179.53 111.536 172.432C106.541 165.352 101.262 158.497 95.6119 151.962C89.9664 145.425 83.9641 139.202 77.5661 133.394C71.1396 127.615 64.3258 122.271 56.8906 117.631C65.06 120.841 72.5957 125.643 79.5053 131.101C86.4385 136.563 92.7587 142.778 98.5221 149.446C104.277 156.125 109.485 163.269 114.04 170.796C118.611 178.307 122.582 186.185 125.649 194.396Z" fill="#CDDCF4"/>
<path d="M179.934 162.766C176.943 166.317 174.232 172.206 172.55 173.141C170.868 174.076 168.031 174.401 165.35 183.029C162.669 191.658 176.204 190.477 176.204 190.477C176.204 190.477 181.991 187.153 184.328 179.123L190.123 173.982L179.934 162.766Z" fill="#F6A397"/>
<path d="M169.465 189.53C169.465 189.53 173.845 188.104 177.561 184.18C181.29 180.24 181.771 173.232 181.771 173.232L183.558 176.57L187.131 172.751L188.854 172.584L190.123 173.982L184.328 179.122C181.992 187.152 176.204 190.476 176.204 190.476C176.204 190.476 172.473 190.8 169.317 189.86C169.398 189.656 169.465 189.53 169.465 189.53Z" fill="#D65863"/>
<path d="M200.225 131.86C196.079 134.89 193.606 137.09 191.545 141.212C189.483 145.335 176.566 160.146 175.741 161.467C174.917 162.788 183.001 176.805 189.472 180.241C189.472 180.241 199.241 168.972 204.875 164.712C210.509 160.452 208.585 145.335 205.974 140.251C203.363 135.166 200.225 131.86 200.225 131.86Z" fill="#5470D3"/>
<path d="M200.074 159.135V150.721C200.074 150.721 201.171 150.282 202.026 153.122C202.368 154.258 202.342 155.453 202.19 156.481L208.479 151.751C208.739 157.046 207.889 162.432 204.875 164.711C199.24 168.971 189.472 180.24 189.472 180.24C187.803 179.354 186.027 177.761 184.323 175.866C188.3 171.906 195.847 164.26 200.074 159.135Z" fill="#314EC6"/>
<path d="M159.886 187.153C158.81 187.489 158.016 188.003 158.016 189.358C158.016 190.713 158.249 192.863 158.764 193.704C159.278 194.546 161.933 195.049 161.933 195.049C161.933 195.049 161.755 189.451 161.194 188.423C160.633 187.395 159.886 187.153 159.886 187.153Z" fill="#F6A397"/>
<path d="M158.763 193.705C158.618 193.468 158.498 193.122 158.397 192.725C158.974 193.292 159.167 193.296 159.872 193.371L161.887 193.999C161.918 194.629 161.932 195.05 161.932 195.05C161.932 195.05 159.277 194.546 158.763 193.705Z" fill="#D65863"/>
<path d="M162.455 185.105C161.146 185.245 159.838 186.227 159.838 187.582C159.838 188.938 159.371 192.723 159.838 193.331C160.305 193.939 162.596 195.668 163.39 195.808C164.185 195.948 165.534 195.714 165.35 195.294C165.166 194.873 162.455 185.105 162.455 185.105Z" fill="#F6A397"/>
<path d="M159.64 192.313C160.632 193.433 163.169 193.333 163.169 193.333C163.169 193.333 164.284 194.523 164.422 194.906C164.505 195.137 164.961 195.441 165.024 195.676C164.604 195.836 163.888 195.895 163.39 195.807C162.611 195.67 160.4 194.008 159.872 193.37L159.64 192.315C159.64 192.315 159.64 192.314 159.64 192.313Z" fill="#D65863"/>
<path d="M167.359 182.869C163.343 183.096 162.596 183.469 162.456 185.105C162.316 186.741 162.409 191.508 162.923 192.723C163.437 193.938 163.718 195.013 164.372 195.668C165.026 196.322 166.005 196.324 166.005 196.324C166.005 196.324 168.204 193.097 168.297 190.387C168.391 187.676 167.359 182.869 167.359 182.869Z" fill="#F6A397"/>
<path d="M165.049 193.639C165.253 192.528 165.704 191.345 165.761 187.631C165.783 186.235 167.077 193.524 166.499 195.523C166.211 196.02 166.005 196.324 166.005 196.324C166.005 196.324 165.026 196.322 164.372 195.667C163.718 195.013 163.437 193.938 162.923 192.723C162.889 192.644 162.858 192.548 162.828 192.441C163.09 193.123 163.922 193.57 165.049 193.639Z" fill="#D65863"/>
<path d="M176.149 191.087C175.896 193.32 172.971 194.125 172.644 195.247C172.316 196.368 172.55 197.396 171.99 197.677C171.429 197.957 169.092 196.648 169.185 195.153C169.185 195.153 168.577 196.415 167.222 196.648C165.867 196.882 165.54 195.892 165.774 194.401C166.007 192.91 165.96 192.115 165.914 190.339C165.867 188.563 165.446 186.928 166.241 184.965C167.036 183.002 168.11 181.273 170.26 181.6C172.41 181.927 173.719 184.638 174.887 185.573C176.055 186.507 176.429 188.61 176.149 191.087Z" fill="#F6A397"/>
<path d="M169.185 195.153C169.316 192.313 169.465 189.989 169.465 189.531C169.465 189.072 169.316 186.058 170.388 185.875C170.551 185.847 172.908 187.34 172.954 188.349C172.999 189.356 172.954 191.166 172.221 191.681C171.487 192.196 169.185 195.153 169.185 195.153Z" fill="#D65863"/>
<path d="M266.578 137.914C262.318 132.508 260.852 131.959 256.454 129.394C252.057 126.828 235.383 120.324 231.947 119.499C228.512 118.675 214.656 125.134 210.109 127.195C205.562 129.256 199.777 131.284 198.791 133.294C195.491 140.018 202.026 149.549 202.061 169.521C202.079 179.982 204.463 203.504 204.463 203.504C204.463 203.504 256.821 203.602 257.554 202.503C258.287 201.403 260.12 163.841 261.035 156.145C261.951 148.45 266.578 137.914 266.578 137.914Z" fill="#A8BBFF"/>
<path d="M198.983 143.823C198.591 142.559 198.357 141.271 198.162 139.979C197.982 138.683 197.841 137.383 197.861 136.059C198.254 137.323 198.487 138.61 198.682 139.903C198.861 141.198 199.001 142.499 198.983 143.823Z" fill="#314EC6"/>
<path d="M218.562 135.955C216.54 135.2 211.747 136.514 210.87 136.819C209.994 137.124 211.386 133.379 211.901 132.915C212.416 132.452 213.241 131.372 214.821 131.86C216.401 132.348 217.729 134.158 217.959 134.753C218.188 135.349 218.562 135.955 218.562 135.955Z" fill="#314EC6"/>
<path d="M235.418 139.082C234.696 139.048 230.488 137.112 229.48 136.631C228.472 136.15 223.907 135.925 220.842 136.782C220.842 136.782 226.743 132.795 230.179 132.829C233.615 132.863 234.92 134.1 235.195 135.2C235.47 136.299 235.418 139.082 235.418 139.082Z" fill="#314EC6"/>
<path d="M212.91 195.082C213.472 194.532 247.666 195.632 248.353 192.059C249.04 188.486 249.513 181.988 249.513 181.988C245.397 184.186 239.42 183.271 239.42 183.271C243.405 181.97 249.177 175.431 249.452 173.507C250.299 167.58 247.132 151.24 247.132 151.24L249.452 146.572L252.166 145.06C252.166 145.06 257.313 147.623 261.714 152.338C261.417 153.643 261.18 154.93 261.035 156.146C260.171 163.401 258.493 197.199 257.69 201.964C247.099 202.354 227.9 203.057 215.053 203.498C208.829 203.513 204.462 203.505 204.462 203.505C204.462 203.505 204.381 200.412 204.195 195.974C207.779 195.764 212.561 195.423 212.91 195.082Z" fill="#314EC6"/>
<path d="M219.854 136.952C223.543 136.507 229.474 133.311 231.81 134.41C234.146 135.509 234.695 138.326 235.176 138.807C235.657 139.288 237.719 136.883 237.719 130.974C237.719 125.065 237.9 119.014 233.549 118.192C229.198 117.369 217.93 121.63 215.662 123.347C213.395 125.065 212.433 126.805 211.814 128.478C211.196 130.15 209.547 136.884 210.303 136.953C211.058 137.021 213.188 132.624 214.769 132.486C216.35 132.348 218.855 137.073 219.854 136.952Z" fill="#5470D3"/>
<path d="M217.755 131.661C216.814 129.428 215.783 127.47 215.818 125.924C215.852 124.378 216.195 123.312 217.913 122.831C219.631 122.35 220.352 123.278 220.455 125.614C220.559 127.951 217.755 131.661 217.755 131.661Z" fill="#314EC6"/>
<path d="M231.224 127.498C234.816 124.24 235.223 120.599 234.885 119.843C234.548 119.087 233.065 118.537 233.065 118.537C233.065 118.537 232.481 120.908 232.824 121.492C233.168 122.076 231.224 127.498 231.224 127.498Z" fill="#314EC6"/>
<path d="M225.507 135.374C226.382 134.981 227.295 134.674 228.227 134.421C229.163 134.194 230.124 134.012 231.122 134.077C231.615 134.115 232.144 134.221 232.585 134.57C232.973 134.937 233.269 135.269 233.599 135.645C234.254 136.388 234.704 137.29 235.119 138.139C235.211 138.334 235.355 138.564 235.419 138.584C235.426 138.587 235.423 138.599 235.497 138.553C235.56 138.509 235.632 138.435 235.698 138.352C235.965 138.01 236.185 137.582 236.399 137.165C236.831 136.343 237.064 135.431 237.248 134.503C237.427 133.574 237.53 132.626 237.597 131.675C237.679 130.724 237.706 129.768 237.719 128.81C237.908 130.718 237.911 132.651 237.647 134.57C237.518 135.526 237.278 136.494 236.846 137.385C236.633 137.822 236.416 138.255 236.101 138.672C236.017 138.776 235.927 138.88 235.794 138.977C235.731 139.024 235.643 139.07 235.539 139.095C235.431 139.121 235.3 139.103 235.202 139.057C235.005 138.958 234.922 138.827 234.842 138.714C234.766 138.599 234.707 138.487 234.65 138.376C234.234 137.506 233.822 136.674 233.217 135.964C232.928 135.612 232.589 135.224 232.291 134.926C231.979 134.666 231.533 134.537 231.083 134.48C230.169 134.372 229.213 134.499 228.284 134.673C227.345 134.838 226.423 135.092 225.507 135.374Z" fill="#314EC6"/>
<path d="M217.047 134.141C216.65 133.789 216.253 133.437 215.821 133.145C215.608 132.998 215.39 132.858 215.164 132.762C215.051 132.718 214.941 132.685 214.839 132.671C214.793 132.676 214.745 132.672 214.709 132.683C214.676 132.706 214.656 132.697 214.591 132.745C213.705 133.291 213.015 134.041 212.43 134.901C212.132 135.316 211.872 135.79 211.52 136.22C211.345 136.433 211.158 136.64 210.921 136.823C210.798 136.909 210.673 137.009 210.45 137.035C210.344 137.053 210.196 137.007 210.106 136.927C210.016 136.846 209.97 136.752 209.945 136.672C209.848 136.347 209.879 136.076 209.905 135.801C209.939 135.529 209.987 135.264 210.048 135.003C210.179 134.483 210.325 133.971 210.511 133.472C210.44 134 210.346 134.521 210.302 135.046C210.273 135.306 210.253 135.567 210.249 135.823C210.248 136.073 210.253 136.346 210.328 136.525C210.344 136.57 210.37 136.594 210.379 136.6C210.391 136.599 210.379 136.604 210.405 136.596C210.449 136.592 210.553 136.533 210.636 136.461C210.812 136.311 210.977 136.116 211.127 135.913C211.437 135.514 211.686 135.053 211.997 134.601C212.309 134.16 212.651 133.733 213.048 133.352C213.445 132.972 213.905 132.646 214.379 132.395C214.423 132.364 214.533 132.324 214.624 132.299C214.714 132.281 214.803 132.291 214.888 132.296C215.048 132.329 215.186 132.386 215.314 132.453C215.563 132.595 215.777 132.765 215.98 132.944C216.373 133.316 216.736 133.708 217.047 134.141Z" fill="#314EC6"/>
<path d="M217.251 118.239C217.259 119.691 217.316 121.139 217.467 122.583C217.838 126.126 217.475 130.799 217.755 131.661C218.067 132.623 219.922 136.059 219.922 136.059C219.922 136.059 223.22 134.547 224.595 132.898C225.969 131.25 227.755 131.166 230.16 128.734C232.565 126.303 234.2 122.44 233.665 119.225C233.596 118.813 233.174 114.697 233.08 110.437C232.987 106.177 228.511 102.94 224.251 102.94C219.991 102.94 217.441 109.261 217.307 113.522C217.253 115.269 217.243 116.911 217.251 118.239Z" fill="#F6A397"/>
<path d="M233.081 110.436C233.174 114.696 233.596 118.812 233.665 119.225C233.831 120.219 233.788 121.274 233.58 122.331C232.637 122.505 220.504 122.797 217.361 121.334C217.289 120.304 217.256 119.273 217.251 118.24C217.243 116.911 217.253 115.27 217.308 113.522C217.365 111.716 217.857 109.541 218.728 107.633L228.709 104.095C231.158 105.402 233.021 107.706 233.081 110.436Z" fill="#D65863"/>
<path d="M209.777 92.6973C203.33 92.6973 200.918 97.6487 200.918 101.36C200.918 104.691 201.986 110.023 209.777 110.023C213.673 110.023 216.31 106.145 216.31 101.36C216.31 96.5763 213.673 92.6973 209.777 92.6973Z" fill="#504984"/>
<path d="M209.492 94.8191C204.624 94.8191 202.803 98.558 202.803 101.36C202.803 103.875 203.609 107.902 209.492 107.902C212.434 107.902 214.425 104.973 214.425 101.36C214.425 97.7476 212.434 94.8191 209.492 94.8191Z" fill="#372D5B"/>
<path d="M201.644 95.6217C202.025 97.8803 203.143 98.7439 203.642 101.789C204.141 104.834 202.809 109.259 204.795 113.112C206.782 116.966 209.994 122.033 211.849 122.247C213.705 122.462 228.566 119.951 233.58 109.98C235.02 107.117 238.096 95.8933 235.463 89.04C232.831 82.1868 228.549 75.9066 218.652 75.7161C208.756 75.5256 199.626 83.6508 201.644 95.6217Z" fill="#F6A397"/>
<path d="M209.921 107.968C210.449 107.98 211.03 107.778 211.29 107.432C211.519 107.128 211.614 106.728 211.547 106.354C210.773 106.992 209.825 107.102 208.872 106.935C208.754 107.646 209.302 107.954 209.921 107.968Z" fill="#D65863"/>
<path d="M227.428 95.6216C227.051 93.272 225.48 91.9164 225.48 91.9164C225.48 91.9164 221.698 90.3461 218.772 90.0608C215.846 89.7751 212.849 88.9189 212.849 88.9189C212.849 88.9189 213.776 91.2686 215.347 92.27C215.347 92.27 208.353 91.9158 206.14 89.8467C206.14 89.8467 206.568 91.5522 206.996 92.6978C206.996 92.6978 203.57 92.3447 202.5 90.9886C202.5 90.9886 201.644 93.9745 201.644 95.6216C201.644 95.6216 197.528 89.9893 198.575 85.5167C199.622 81.0442 201.049 79.3318 201.049 79.3318C201.049 79.3318 198.1 79.6171 196.482 79.3318C196.482 79.3318 200.288 76.0012 203.143 73.8126C205.998 71.624 214.562 71.5287 214.562 71.5287C214.562 71.5287 213.896 69.2448 214.657 65.629C214.657 65.629 218.321 71.0051 222.198 72.647C226.076 74.2889 225.554 74.1494 229.665 75.1866C233.777 76.2244 237.685 78.8561 239.326 81.0684C240.968 83.2807 242.752 85.5646 243.823 85.9214C243.823 85.9214 241.253 85.5646 239.969 84.4943C239.969 84.4943 242.111 89.3594 239.28 95.6216C236.448 101.884 229.355 100.031 227.979 98.6486C226.603 97.2661 227.428 95.6216 227.428 95.6216Z" fill="#BA6454"/>
<path d="M227.978 98.6486C226.602 97.2662 227.427 95.6217 227.427 95.6217C227.199 94.2003 226.536 93.1457 226.046 92.5316C227.075 86.2904 226.655 79.8134 224.827 73.7579C225.896 74.1921 226.53 74.3868 228.076 74.7841C229.975 77.64 231.395 80.8532 232.373 84.1081C233.618 88.2527 234.22 92.7305 233.059 96.8994C232.761 97.9682 232.327 99.0107 231.778 99.9869C230.018 99.8395 228.533 99.2059 227.978 98.6486Z" fill="#874438"/>
<path d="M229.916 93.2957C229.916 93.2957 230.405 77.6426 222.198 72.647C222.198 72.647 228.549 71.9334 232.189 78.2852C235.828 84.6369 235.582 90.0845 235.491 93.1378C235.399 96.1905 229.916 93.2957 229.916 93.2957Z" fill="#504984"/>
<path d="M232.418 92.6973C238.864 92.6973 241.277 97.6487 241.277 101.36C241.277 104.691 240.209 110.023 232.418 110.023C228.522 110.023 225.885 106.145 225.885 101.36C225.885 96.5763 228.522 92.6973 232.418 92.6973Z" fill="#504984"/>
<path d="M228.943 101.36C228.943 97.1131 231.746 93.6699 235.205 93.6699C238.663 93.6699 241.277 97.1131 241.277 101.36C241.277 105.608 238.663 109.051 235.205 109.051C231.746 109.051 228.943 105.608 228.943 101.36Z" fill="#372D5B"/>
<path d="M236.031 106.594C238.385 106.594 240.293 104.251 240.293 101.36C240.293 98.4699 238.385 96.1268 236.031 96.1268C233.677 96.1268 231.77 98.4699 231.77 101.36C231.77 104.251 233.677 106.594 236.031 106.594Z" fill="#504984"/>
<path d="M216.078 110.023C214.336 110.983 208.646 111.302 208.259 111.249C207.871 111.196 208.667 115.516 210.06 115.676C211.453 115.836 214.24 115.463 215.402 114.344C216.563 113.224 216.078 110.023 216.078 110.023Z" fill="#D65863"/>
<path d="M215.714 111.283C215.607 110.9 215.523 110.592 215.442 110.293C213.525 110.947 209.753 111.224 208.59 111.252C208.684 111.829 208.851 112.414 209.086 112.989C209.123 112.965 209.077 113.044 209.114 113.02C211.626 113.415 214.18 112.601 215.714 111.283Z" fill="white"/>
<path d="M215.31 99.6953C215.31 98.907 215.699 98.2681 216.179 98.2681C216.658 98.2681 217.047 98.907 217.047 99.6953C217.047 100.484 216.658 101.122 216.179 101.122C215.699 101.122 215.31 100.484 215.31 99.6953Z" fill="#3F1751"/>
<path d="M205.375 100.361C205.375 99.5727 205.709 98.9338 206.122 98.9338C206.534 98.9338 206.868 99.5727 206.868 100.361C206.868 101.149 206.534 101.788 206.122 101.788C205.709 101.789 205.375 101.149 205.375 100.361Z" fill="#3F1751"/>
<path d="M220.172 94.1308C219.579 93.8045 218.94 93.5788 218.284 93.3904C217.626 93.2136 216.943 93.1094 216.25 93.0852C215.561 93.0504 214.832 93.0315 214.165 93.2888C213.496 93.5193 212.889 93.9398 212.442 94.4939L212.493 94.5786C213.21 94.5013 213.802 94.3255 214.427 94.2429C215.038 94.1513 215.631 93.9277 216.27 93.8761C217.533 93.7688 218.857 93.8687 220.131 94.2208L220.172 94.1308Z" fill="#3F1751"/>
<path d="M202.864 95.9753C203.173 95.8553 203.499 95.7801 203.823 95.7422C204.147 95.6985 204.47 95.6827 204.79 95.679C205.113 95.6748 205.433 95.7901 205.748 95.7127C205.907 95.6769 206.068 95.6464 206.234 95.5775C206.401 95.5207 206.57 95.447 206.753 95.3191L206.764 95.2207C206.453 94.9176 206.102 94.7881 205.745 94.7234C205.384 94.6555 205.028 94.8002 204.681 94.895C204.333 94.986 203.992 95.1076 203.671 95.2712C203.356 95.4459 203.048 95.6285 202.803 95.8969L202.864 95.9753Z" fill="#3F1751"/>
<path d="M212.91 198.469C212.914 198.69 212.605 199.01 211.849 199.01C211.094 199.01 190.766 199.01 188.018 199.01C185.269 199.01 184.628 197.922 185.452 196.548C186.277 195.174 189.758 192.151 198.37 190.044C206.982 187.937 211.51 192.863 212.91 195.082C213.937 196.709 212.91 198.469 212.91 198.469Z" fill="#504984"/>
<path d="M185.249 196.96C185.723 198.537 203.908 197.715 203.908 197.715C203.908 197.715 202.064 195.224 200.026 195.153C197.987 195.082 196.996 195.79 194.262 196.261C191.528 196.731 193.555 195.148 193.555 195.148C193.555 195.148 191.624 194.72 190.838 194.111C190.838 194.111 195.342 192.78 197.232 192.471C199.122 192.161 203.931 192.367 204.55 192.471C204.987 192.544 207.206 191.254 209.889 191.902C211.386 192.995 212.377 194.235 212.911 195.082C213.937 196.709 212.911 198.468 212.911 198.468C212.915 198.689 212.605 199.009 211.85 199.009C211.094 199.009 190.767 199.009 188.018 199.009C185.551 199.009 184.786 198.133 185.249 196.96Z" fill="#372D5B"/>
<path d="M263.028 183.569C263.028 183.569 246.08 186.189 236.894 187.833C228.192 189.391 220.678 190.066 218.548 189.654C216.418 189.242 209.135 186.562 206.798 185.6C204.462 184.638 199.79 184.089 197.385 184.844C194.98 185.6 193.01 186.425 192.048 186.425C191.086 186.425 191.269 187.982 192.552 188.303C193.834 188.623 194.98 188.578 194.98 188.578C194.98 188.578 190.629 190.959 189.85 191.189C189.071 191.418 189.993 192.838 191.047 192.746C191.047 192.746 190.125 193.296 190.445 193.846C190.766 194.396 193.057 194.396 193.057 194.396C193.057 194.396 190.262 195.77 192.598 196.32C194.934 196.869 197.729 194.258 198.874 194.029C200.019 193.8 202.676 193.938 203.959 194.9C205.241 195.862 210.738 200.305 218.251 197.648C218.251 197.648 269.242 199.714 274.326 199.714C279.411 199.714 282.482 195.22 280.852 186.563C279.221 177.905 276.061 171.446 276.061 171.446L258.471 172.682L263.028 183.569Z" fill="#F6A397"/>
<path d="M198.995 187.201C199.444 187.096 199.801 187.034 200.026 187.02C200.026 187.02 199.59 187.095 198.995 187.201Z" fill="#D65863"/>
<path d="M194.98 188.578C194.98 188.578 193.835 188.623 192.552 188.303C192.191 188.213 191.921 188.023 191.735 187.8C193.162 188.43 194.917 188.028 195.879 187.799C196.486 187.654 197.976 187.382 198.994 187.201C197.975 187.441 196.48 187.91 194.98 188.578Z" fill="#D65863"/>
<path d="M195.204 190.639C195.314 190.589 195.407 190.549 195.467 190.531C195.467 190.531 195.369 190.572 195.204 190.639Z" fill="#D65863"/>
<path d="M189.859 192.209C189.875 192.224 190.378 192.667 191.437 192.206C192.319 191.823 194.459 190.945 195.205 190.639C194.267 191.065 191.724 192.5 191.047 192.746C190.579 192.787 190.138 192.528 189.859 192.209Z" fill="#D65863"/>
<path d="M192.49 193.891C193.269 193.662 194.895 192.677 195.891 192.206C196.888 191.735 198.159 191.68 198.159 191.68C198.159 191.68 197.781 191.714 196.784 192.206C195.788 192.697 193.056 194.395 193.056 194.395C193.056 194.395 191.586 194.394 190.837 194.111C190.845 194.111 191.715 194.119 192.49 193.891Z" fill="#D65863"/>
<path d="M206.988 195.013C208.431 195.907 212.691 197.075 215.233 196.594C217.776 196.113 218.326 193.983 218.326 193.983L219.036 196.273C219.036 196.273 254.399 197.28 261.591 196.957C268.701 196.638 279.789 196.476 281.237 192.206C280.84 197.162 278.155 199.713 274.326 199.713C269.242 199.713 218.251 197.647 218.251 197.647C210.738 200.304 205.242 195.861 203.959 194.899C202.893 194.099 200.879 193.87 199.571 193.947C201.522 193.264 205.545 194.12 206.988 195.013Z" fill="#D65863"/>
<path d="M263.028 183.569C263.028 183.569 269.653 182.668 270.982 182.531L269.974 178.408L261.591 180.103L263.028 183.569Z" fill="#D65863"/>
<path d="M280.735 172.028C280.984 172.673 280.826 173.399 280.331 173.883C277.252 176.89 273.209 180.985 269.052 181.615C264.516 182.302 256.958 182.577 256.546 181.615C256.134 180.653 254.622 168.422 251.874 162.238C249.125 156.054 247.338 152.893 246.652 149.32C245.964 145.747 252.149 137.365 254.897 136.677C257.645 135.99 263.967 135.578 266.578 137.914C269.189 140.25 271.113 149.183 274.136 155.917C276.576 161.35 279.642 169.2 280.735 172.028Z" fill="#5470D3"/>
<path d="M263.725 136.557C262.884 136.461 262.042 136.391 261.2 136.372C260.358 136.337 259.517 136.341 258.68 136.39C257.843 136.441 257.01 136.524 256.19 136.672C255.778 136.738 255.374 136.834 254.968 136.924C254.591 137.062 254.202 137.162 253.854 137.379C253.485 137.545 253.164 137.806 252.824 138.032C252.516 138.304 252.186 138.551 251.904 138.857C251.3 139.424 250.791 140.091 250.275 140.748C249.773 141.418 249.316 142.124 248.881 142.846C248.435 143.561 248.037 144.305 247.65 145.059C248.218 143.46 249.004 141.94 249.945 140.514C250.424 139.806 250.944 139.12 251.551 138.505C251.836 138.181 252.186 137.916 252.508 137.627C252.869 137.379 253.207 137.1 253.611 136.913C253.989 136.684 254.426 136.568 254.845 136.425C255.266 136.336 255.685 136.235 256.11 136.181C256.959 136.059 257.814 135.979 258.668 135.986C260.373 135.984 262.078 136.149 263.725 136.557Z" fill="#314EC6"/>
<path d="M277.304 174.56C277.281 172.364 272.644 152.234 268.549 141.015C270.29 144.848 271.917 150.973 274.136 155.916C276.576 161.35 279.642 169.2 280.735 172.028C280.984 172.673 280.826 173.399 280.331 173.883C279.152 175.035 277.83 176.345 276.415 177.56C276.522 177.456 277.325 176.61 277.304 174.56Z" fill="#314EC6"/>
<path d="M56.2538 151.882C56.1701 152.559 56.3117 153.242 56.6406 153.84C57.8399 156.022 58.4477 158.527 58.3693 161.016C58.3177 162.655 57.9809 164.332 58.4272 165.911C59.1971 168.634 62.0714 170.318 62.9965 172.993C63.8164 175.365 63.0539 178.347 64.7584 180.188C65.181 180.644 65.8367 180.994 66.414 180.763C66.7039 180.646 66.9213 180.404 67.1275 180.17C69.0815 177.951 71.1733 175.254 70.5707 172.36C70.0045 169.641 67.2023 167.803 66.6708 165.077C66.2366 162.849 67.3754 160.279 66.0993 158.402C65.7472 157.884 65.2431 157.488 64.8584 156.995C63.3407 155.045 63.9027 151.939 62.154 150.194C61.5836 149.626 60.87 149.303 60.0922 149.137C58.2583 148.744 56.4843 150.021 56.2538 151.882Z" fill="#BA5E5B"/>
<path d="M67.3659 186.434C67.4833 184.983 67.5333 183.532 67.5875 182.077C67.5212 180.627 67.4438 179.176 67.3196 177.727C67.1954 176.278 67.0323 174.828 66.776 173.387C66.5155 171.955 66.1714 170.493 65.5688 169.146C64.5169 166.485 63.6659 163.704 62.8066 160.947L61.5604 156.79C61.0484 155.433 60.5485 154.072 60.0654 152.702C60.2769 154.144 60.6069 155.559 60.8963 156.985L62.1456 161.15C63.0102 163.921 63.8527 166.686 64.931 169.413C65.5141 170.716 65.8367 172.096 66.0951 173.508C66.3461 174.918 66.5071 176.35 66.6302 177.786C66.7508 179.222 66.8355 180.663 66.8907 182.107L67.3659 186.434Z" fill="#FFA6A4"/>
<path d="M59.7081 157.034C59.947 157.396 60.2554 157.668 60.5864 157.908C60.7563 158.022 60.9558 158.096 61.141 158.19C61.3289 158.28 61.4931 158.401 61.6457 158.539L61.712 158.599L61.7709 158.509C61.9093 158.297 62.0777 158.101 62.2098 157.886C62.3377 157.669 62.4719 157.456 62.5856 157.232C62.8066 156.782 62.9713 156.304 63.055 155.785L63.0139 155.764C62.6513 156.145 62.3698 156.565 62.1446 157.014C62.0351 157.239 61.9462 157.476 61.8509 157.708C61.7604 157.943 61.7057 158.196 61.6204 158.434L61.7452 158.404C61.5689 158.3 61.4041 158.179 61.2631 158.025C61.1194 157.877 60.99 157.708 60.8311 157.58C60.5043 157.335 60.1548 157.121 59.736 156.998L59.7081 157.034Z" fill="#FFA6A4"/>
<path d="M60.0606 161.993C60.3101 162.198 60.5669 162.42 60.8358 162.605C61.1047 162.796 61.3778 162.979 61.673 163.127C61.9714 163.27 62.2882 163.383 62.575 163.546C62.8634 163.705 63.1265 163.906 63.3839 164.115L63.4744 164.189L63.5659 164.069C63.9638 163.548 64.3037 162.994 64.6247 162.43C64.9268 161.854 65.1962 161.261 65.3894 160.624L65.3494 160.601C64.9036 161.096 64.5342 161.632 64.1974 162.188C63.8796 162.754 63.5807 163.332 63.3396 163.941L63.5217 163.895C63.2207 163.754 62.9244 163.607 62.6529 163.419C62.3798 163.234 62.1356 163.002 61.8725 162.801C61.6062 162.604 61.3157 162.445 61.0194 162.297C60.719 162.153 60.4211 162.013 60.0701 161.947L60.0606 161.993Z" fill="#FFA6A4"/>
<path d="M61.8225 168.538C62.0956 168.813 62.4003 169.016 62.7145 169.199C63.0244 169.39 63.3649 169.516 63.728 169.602C64.0895 169.69 64.4174 169.85 64.7089 170.073C64.9999 170.294 65.2846 170.537 65.5762 170.728L65.7961 170.872L65.9598 170.627C66.2008 170.266 66.4197 169.892 66.5897 169.492C66.7602 169.092 66.9118 168.682 66.996 168.235L66.9455 168.207C66.6129 168.518 66.3471 168.865 66.1008 169.223C65.854 169.581 65.6556 169.966 65.4799 170.363L65.8635 170.262C65.5309 170.079 65.1773 169.973 64.8273 169.851C64.4779 169.731 64.1585 169.558 63.8706 169.318C63.5844 169.074 63.2712 168.883 62.9266 168.757C62.5855 168.624 62.2324 168.517 61.8462 168.485L61.8225 168.538Z" fill="#FFA6A4"/>
<path d="M69.673 186.718C70.8065 186.531 75.057 185.172 74.7602 184.062C73.4861 179.298 72.2121 173.894 76.6241 171.564C78.7475 170.443 81.4124 169.873 82.6212 167.799C83.8663 165.662 82.9495 162.946 81.8323 160.74C80.7151 158.534 79.3695 156.173 79.8484 153.747C80.3499 151.206 82.7522 149.331 83.1369 146.77C83.6615 143.273 80.2662 140.456 77.0041 139.091C75.8947 138.627 74.6749 138.23 73.5056 138.512C72.6705 138.713 71.9464 139.249 71.3738 139.889C69.0826 142.451 69.1762 146.317 69.6988 149.714C70.2213 153.111 71.0217 156.699 69.7425 159.889C68.8336 162.155 66.8881 164.287 67.4091 166.672C67.618 167.627 68.2137 168.46 68.4405 169.411C69.0531 171.976 66.9229 174.285 65.9467 176.734C64.6869 179.893 65.5515 183.754 67.9396 186.151C68.3942 186.607 69.0378 186.822 69.673 186.718Z" fill="#E67471"/>
<path d="M69.272 186.77C69.5346 184.885 69.7972 183.006 70.1335 181.141C70.2135 180.674 70.3113 180.21 70.3861 179.744C70.4571 179.277 70.4987 178.806 70.576 178.34C70.7171 177.407 70.8739 176.476 71.0518 175.551C71.4117 173.704 71.8422 171.864 72.4737 170.114C72.7905 169.243 73.1662 168.391 73.6624 167.656C73.9087 167.289 74.1997 166.965 74.5218 166.746C74.9465 166.467 75.3517 166.107 75.6685 165.68C76.3221 164.813 76.5194 163.713 76.4957 162.721C76.4736 161.716 76.2837 160.757 76.0711 159.819C75.6343 157.949 75.0844 156.141 74.7786 154.301C74.4681 152.47 74.4076 150.595 74.8912 148.839C75.0401 148.41 75.157 147.974 75.298 147.537C75.4422 147.103 75.629 146.68 75.84 146.267C76.2637 145.44 76.8157 144.67 77.4272 143.938C76.6773 144.526 75.9821 145.206 75.4017 145.992C75.1101 146.383 74.8375 146.795 74.6055 147.232C74.3655 147.664 74.1624 148.124 74.0571 148.61C73.5283 150.532 73.6035 152.545 73.9256 154.444C74.2439 156.353 74.8033 158.187 75.228 160.012C75.4359 160.924 75.6122 161.84 75.6306 162.735C75.6495 163.627 75.4769 164.498 74.9728 165.164C74.7234 165.499 74.4108 165.782 74.0429 166.024C73.5782 166.341 73.2341 166.746 72.9499 167.164C72.3832 168.005 71.9937 168.907 71.6606 169.816C71.0028 171.64 70.5676 173.511 70.2019 175.387C70.0209 176.325 69.8625 177.267 69.7198 178.211C69.6546 178.684 69.5667 179.153 69.5093 179.627C69.4609 180.101 69.4399 180.579 69.4099 181.055C69.3078 182.962 69.2368 184.866 69.272 186.77Z" fill="#FFA6A4"/>
<path d="M76.8009 149.589C76.4747 149.703 76.201 149.893 75.9474 150.096C75.6963 150.303 75.4564 150.521 75.2796 150.798C75.1006 151.073 74.9412 151.363 74.7118 151.588C74.4913 151.822 74.225 152.012 73.9692 152.217L74.3055 152.238C74.1924 151.994 74.0524 151.766 73.924 151.532C73.7919 151.3 73.6593 151.069 73.5024 150.854C73.3556 150.633 73.1872 150.425 73.0273 150.213C72.8662 150.001 72.6841 149.806 72.5384 149.58L72.4815 149.59C72.4689 149.887 72.5589 150.162 72.6494 150.422C72.7489 150.681 72.8599 150.932 72.9941 151.169C73.1193 151.411 73.2777 151.631 73.4388 151.849C73.604 152.064 73.7624 152.283 73.9524 152.481L74.1629 152.703L74.2887 152.503C74.4607 152.229 74.6265 151.946 74.8412 151.708C75.047 151.462 75.3264 151.285 75.5906 151.096C75.8563 150.909 76.0663 150.67 76.2715 150.427C76.4757 150.181 76.6657 149.927 76.8367 149.635L76.8009 149.589Z" fill="#FFA6A4"/>
<path d="M72.6805 156.802C72.8152 157.126 72.9915 157.422 73.1878 157.7C73.3883 157.974 73.5972 158.241 73.8371 158.479C74.0824 158.713 74.3634 158.912 74.6265 159.127C74.8844 159.347 75.1117 159.594 75.318 159.864L75.3838 159.95L75.4764 159.876C75.8195 159.603 76.0921 159.353 76.3626 159.063C76.6189 158.77 76.8915 158.493 77.1298 158.189C77.3703 157.886 77.5945 157.572 77.8076 157.249C78.0229 156.927 78.216 156.59 78.4402 156.276L78.4075 156.228C78.0313 156.406 77.7382 156.681 77.4477 156.944C77.1614 157.214 76.8962 157.5 76.6504 157.801C76.402 158.099 76.191 158.427 75.9605 158.737C75.7353 159.041 75.5453 159.418 75.3317 159.685L75.4901 159.697C75.229 159.483 74.9938 159.242 74.7917 158.972C74.5944 158.696 74.4176 158.403 74.2102 158.139C73.9976 157.879 73.7556 157.647 73.5151 157.413C73.2699 157.183 73.0099 156.968 72.7252 156.766L72.6805 156.802Z" fill="#FFA6A4"/>
<path d="M80.2594 162.37C79.9016 162.79 79.5306 163.177 79.1511 163.546C78.7707 163.917 78.3618 164.241 77.9645 164.597C77.5587 164.942 77.0993 165.25 76.5789 165.402C76.0626 165.564 75.5148 165.585 74.9865 165.579L75.2227 165.745C75.1296 165.3 74.9912 164.881 74.8454 164.457C74.7023 164.033 74.5192 163.621 74.2976 163.228C74.0787 162.834 73.8187 162.458 73.5125 162.119C73.2009 161.788 72.8399 161.478 72.4089 161.323L72.38 161.373C72.7063 161.669 72.9578 162.01 73.1762 162.374C73.3983 162.735 73.5867 163.117 73.7714 163.501L74.3018 164.672C74.476 165.064 74.6297 165.473 74.7823 165.87L74.856 166.062L75.0186 166.036C75.5811 165.949 76.1147 165.758 76.6362 165.574C77.1514 165.373 77.6813 165.197 78.1881 164.938C78.7001 164.687 79.1317 164.298 79.4932 163.866C79.8542 163.432 80.1489 162.939 80.3099 162.396L80.2594 162.37Z" fill="#FFA6A4"/>
<path d="M70.0098 166.63C69.8361 167.048 69.7767 167.502 69.7883 167.953C69.8072 168.402 69.8782 168.856 70.0356 169.28C70.2014 169.701 70.444 170.088 70.716 170.438L71.5091 171.492L71.5654 171.568L71.6569 171.502C72.0858 171.198 72.5742 170.966 73.0399 170.724C73.5046 170.474 73.9861 170.261 74.4681 170.056C74.9496 169.848 75.4301 169.638 75.9248 169.453C76.4152 169.252 76.9199 169.091 77.4319 168.899L77.4235 168.842C76.3305 168.818 75.2264 169.05 74.2213 169.493C73.7172 169.713 73.243 169.995 72.7841 170.293C72.3268 170.598 71.919 170.966 71.5196 171.345L71.6675 171.355C71.3738 171.045 71.106 170.703 70.9355 170.309C70.745 169.926 70.6513 169.508 70.5208 169.117C70.2671 168.328 70.1061 167.515 70.0666 166.645L70.0098 166.63Z" fill="#FFA6A4"/>
<path d="M61.9667 199.009H74.0997C75.2259 199.009 76.1831 198.036 76.3526 196.718L78.2733 181.793C78.4833 180.16 77.4156 178.689 76.0205 178.689H60.0459C58.6503 178.689 57.5826 180.16 57.7931 181.793L59.7139 196.718C59.8833 198.036 60.8405 199.009 61.9667 199.009Z" fill="#504984"/>
<path d="M60.0464 178.689H68.2132C66.8176 178.689 65.7498 180.16 65.9603 181.793L67.8811 196.718C68.0505 198.036 69.0078 199.01 70.1339 199.01H61.9667C60.8405 199.01 59.8833 198.036 59.7138 196.718L57.793 181.793C57.5831 180.16 58.6508 178.689 60.0464 178.689Z" fill="#372D5B"/>
<path d="M170.652 194.911H119.906C119.395 194.911 118.981 195.325 118.981 195.836V198.084C118.981 198.595 119.395 199.009 119.906 199.009H170.652V194.911Z" fill="#282142"/>
<path d="M183.712 197.738V198.652C183.712 198.849 183.552 199.009 183.354 199.009H170.571C170.174 199.009 169.851 198.687 169.851 198.289V195.626C169.851 195.197 170.225 194.862 170.652 194.911L183.394 197.383C183.575 197.403 183.712 197.556 183.712 197.738Z" fill="#504984"/>
<path d="M81.9694 108.661H176.812C178.731 108.661 180.443 109.865 181.093 111.67L201.835 169.272C202.702 172.242 200.529 174.468 197.036 174.845C196.501 174.903 193.954 173.757 189.953 171.876H105.163C103.244 171.876 101.531 170.672 100.882 168.867L82.1442 116.832C78.9762 115.179 77.1701 114.234 77.1701 114.234C77.1701 114.234 75.9977 108.661 81.9694 108.661Z" fill="#504984"/>
<path d="M173.842 111.63H79.0006C77.6534 111.63 76.7146 112.967 77.1709 114.234L97.9127 171.836C98.5626 173.641 100.276 174.845 102.194 174.845H197.037C198.384 174.845 199.323 173.509 198.866 172.241L178.124 114.639C177.474 112.834 175.762 111.63 173.842 111.63Z" fill="#372D5B"/>
<path d="M152.431 174.845L148.221 159.23L132.265 174.845H152.431Z" fill="#282142"/>
<path d="M129.34 131.86C129.757 134.435 131.423 135.473 133.419 135.473C135.414 135.473 136.916 133.824 136.566 131.86C136.217 129.896 134.483 128.247 132.487 128.247C130.492 128.247 129.02 129.89 129.34 131.86Z" fill="#504984"/>
<path d="M173.912 165.26L172.693 161.873H174.226L175.445 165.26H173.912Z" fill="#282142"/>
<path d="M170.684 165.26L169.465 161.873H170.998L172.217 165.26H170.684Z" fill="#282142"/>
<path d="M167.456 165.26L166.236 161.873H167.769L168.989 165.26H167.456Z" fill="#282142"/>
<path d="M164.228 165.26L163.008 161.873H164.541L165.761 165.26H164.228Z" fill="#282142"/>
<path d="M118.373 165.26L117.154 161.873H118.687L119.906 165.26H118.373Z" fill="#282142"/>
<path d="M115.145 165.26L113.926 161.873H115.459L116.678 165.26H115.145Z" fill="#282142"/>
<path d="M111.917 165.26L110.698 161.873H112.231L113.45 165.26H111.917Z" fill="#282142"/>
<path d="M108.689 165.26L107.469 161.873H109.002L110.222 165.26H108.689Z" fill="#282142"/>
<path d="M120.405 193.443C121.341 190.751 132.69 154.13 132.69 154.13H147.259L148.221 159.23C148.221 159.23 138.453 190.751 137.518 193.443C137.447 193.648 137.378 193.854 137.314 194.059H137.316C136.459 196.691 138.718 196.679 141.261 196.679C143.805 196.679 166.954 196.679 166.954 196.679V199.009H141.261H124.149C119.001 199.009 119.469 196.134 120.405 193.443Z" fill="#372D5B"/>
<path d="M147.259 154.13C147.259 154.13 135.909 190.751 134.974 193.443C134.038 196.134 133.57 199.009 138.718 199.009H121.606C116.457 199.009 116.926 196.134 117.861 193.443C118.798 190.751 130.147 154.13 130.147 154.13H147.259Z" fill="#504984"/>
<path d="M143.691 154.13C142.562 154.078 141.433 154.052 140.305 154.015C139.176 153.976 138.047 153.968 136.919 153.943C135.79 153.925 134.661 153.892 133.532 153.892L130.146 153.871L129.957 153.87L129.898 154.053C129.426 155.528 128.961 157.005 128.517 158.489L127.167 162.934C126.298 165.907 125.428 168.879 124.634 171.876C125.677 168.957 126.643 166.014 127.612 163.072L129.017 158.644C129.492 157.17 129.946 155.689 130.392 154.207L130.145 154.389L133.531 154.368C134.66 154.367 135.789 154.334 136.918 154.317C138.046 154.291 139.175 154.283 140.304 154.244C141.434 154.208 142.562 154.182 143.691 154.13Z" fill="#7F74D1"/>
<path d="M44.4413 208H295.639C298.122 208 300.135 205.988 300.135 203.505C300.135 201.022 298.122 199.01 295.639 199.01H44.4413C41.9585 199.01 39.9461 201.023 39.9461 203.505C39.9461 205.987 41.9585 208 44.4413 208Z" fill="#8E5058"/>
<path d="M44.4413 208H295.639C298.122 208 300.135 205.988 300.135 203.505H39.9461C39.9461 205.987 41.9585 208 44.4413 208Z" fill="#64364A"/>
<path d="M96.5237 65.3391C101.283 45.0062 88.6576 24.6651 68.3247 19.9061C47.9917 15.147 27.6507 27.7722 22.8916 48.1051C18.1326 68.438 30.7577 88.7791 51.0907 93.5381C71.4236 98.2972 91.7647 85.672 96.5237 65.3391Z" fill="#5470D3"/>
<mask id="mask0_116_2216" style="mask-type:luminance" maskUnits="userSpaceOnUse" x="21" y="11" width="77" height="84">
<path d="M97.5185 56.7261C97.5185 77.6084 80.5899 94.5366 59.7081 94.5366C38.8258 94.5366 21.8976 77.6079 21.8976 56.7261C21.8976 35.8438 38.8263 11.5735 59.7081 11.5735C80.5904 11.573 97.5185 35.8438 97.5185 56.7261Z" fill="white"/>
</mask>
<g mask="url(#mask0_116_2216)">
<path d="M112.874 86.9003C113.593 90.5088 110.253 93.7152 109.207 94.3167C108.161 94.9176 101.143 97.7235 96.9265 97.824C92.7108 97.924 87.1468 89.0058 89.4239 88.0039C91.7015 87.0019 107.214 85.8994 108.917 85.8994C110.621 85.8989 112.874 86.9003 112.874 86.9003Z" fill="#FFC5C7"/>
<path d="M101.818 84.9969C99.9782 95.8196 95.6077 104.237 94.2437 104.387C92.8802 104.538 79.7789 100.028 76.1668 98.375C72.5552 96.7216 77.2761 71.3215 79.5237 71.7688C81.7713 72.2161 86.6995 77.0959 90.7689 79.4356C94.8389 81.7753 101.818 84.9969 101.818 84.9969Z" fill="white"/>
<path d="M80.2389 89.4957C81.5018 91.6617 91.913 97.1515 97.6469 99.1528C96.2298 102.349 94.8947 104.315 94.2442 104.387C93.0765 104.516 83.3047 101.228 78.2528 99.2422C78.6759 95.2212 80.2389 89.4957 80.2389 89.4957Z" fill="#DCEDFF"/>
<path d="M112.89 86.3999C112.993 90.6935 109.125 91.3102 104.495 90.2077C99.8661 89.1053 92.3071 78.6836 88.9418 73.9742C85.577 69.2644 79.2985 60.8719 78.0002 60.1204C76.702 59.3689 73.7245 58.97 71.177 54.7354C68.6294 50.5007 71.9805 41.632 73.1846 40.58C74.3886 39.5275 84.7051 43.0407 85.9033 44.8168C87.1016 46.5923 85.0545 56.1373 85.4176 57.3398C85.7812 58.5422 94.561 68.3624 98.3947 70.7673C102.228 73.1723 112.815 83.2935 112.89 86.3999Z" fill="#FFC5C7"/>
<path d="M78.4681 47.6648C77.2545 47.0633 76.9614 44.3326 77.7245 44.8141C78.4881 45.2951 79.8231 45.2851 81.6292 45.2599C83.4358 45.2346 84.1762 45.0788 84.1762 45.0788C84.1762 45.0788 84.3614 46.2618 84.352 47.2312C84.352 47.2312 79.6816 48.2663 78.4681 47.6648Z" fill="#FE8A8B"/>
<path d="M70.4345 48.2858C71.1701 46.9181 71.738 45.8809 71.738 45.8809L78.8348 52.7121C80.7756 51.0291 83.1495 49.4936 83.1495 49.4936L83.7742 50.6071C82.6259 52.55 81.6255 56.6583 81.6029 57.6603C81.6029 57.6603 80.513 58.8628 79.9047 58.9633C79.9047 58.9633 87.4973 70.9884 92.3782 76.9007C97.2302 82.7783 100.553 87.8618 102.841 89.4958C98.2258 86.8351 91.9309 78.1579 88.9413 73.9738C85.5765 69.2639 79.2979 60.8714 77.9997 60.12C76.7015 59.3685 73.724 58.9696 71.1765 54.7349C70.1661 53.0552 70.0908 50.6471 70.4345 48.2858Z" fill="#FE8A8B"/>
<path d="M85.2061 48.972C85.1203 49.6724 78.0676 55.7863 77.3293 56.4878C77.274 56.5404 76.723 56.6209 76.571 56.4878C74.6954 54.8396 66.5055 39.968 66.3592 39.4312C66.2229 38.9308 71.6595 33.8146 73.3198 32.4464C73.5461 32.2601 74.4776 32.3727 74.6307 32.599C76.3063 35.0797 85.3176 48.0663 85.2061 48.972Z" fill="#0C0835"/>
<path d="M84.4483 48.972C84.3625 49.6724 77.3098 55.7863 76.5715 56.4878C75.8337 57.1893 65.7599 40.0112 65.602 39.4312C65.4652 38.9308 71.5185 33.8978 73.1788 32.5291C73.4046 32.3428 73.7203 32.3722 73.8729 32.5985C75.5485 35.0798 84.5593 48.0663 84.4483 48.972Z" fill="#252384"/>
<path d="M83.2611 47.9669C83.1806 48.6221 76.5831 54.3418 75.8926 54.998C75.2022 55.6542 65.7783 39.5839 65.6304 39.0413C65.5025 38.573 71.1654 33.8647 72.7184 32.5843C72.9299 32.4101 73.2251 32.4375 73.3683 32.6496C74.9349 34.9703 83.3653 47.1196 83.2611 47.9669Z" fill="#57AFF7"/>
<path d="M79.0311 39.5844C77.9392 38.9261 76.5983 36.6964 76.4778 35.9449C76.3573 35.1934 76.4315 34.5167 77.0183 34.3667C77.6055 34.2162 79.4132 36.5711 80.3141 37.2726C81.215 37.9741 82.3117 39.427 81.8649 40.4043C81.4182 41.3815 79.4163 41.0052 79.2016 40.8553C78.9875 40.7048 79.0311 39.5844 79.0311 39.5844Z" fill="#FFC5C7"/>
<path d="M76.6804 34.564C76.3341 35.4181 78.5901 38.8476 80.5683 39.8343L79.8326 40.6753C79.8326 40.6753 79.4989 40.6016 79.0701 40.5C79.0116 40.1196 79.0306 39.5844 79.0306 39.5844C77.9386 38.926 76.5978 36.6964 76.4773 35.9449C76.3862 35.375 76.4094 34.8514 76.6804 34.564Z" fill="#FE8A8B"/>
<path d="M81.5708 43.0487C79.6916 42.0446 78.2181 42.1572 77.1956 41.7441C76.1736 41.331 75.9879 39.7523 76.683 39.4892C77.3787 39.2261 81.6134 39.9028 82.7054 40.3911C83.7968 40.8795 84.3188 43.1302 84.3188 43.1302L81.5708 43.0487Z" fill="#FFC5C7"/>
<path d="M80.7477 41.8778C81.8102 42.0782 82.1759 41.8778 82.1759 41.8778C82.1459 42.293 82.5375 42.4998 82.979 43.0902L81.5708 43.0486C79.6916 42.0446 78.2181 42.1572 77.1961 41.7441C76.7299 41.5557 76.4468 41.1242 76.3331 40.6863C76.7878 41.552 79.69 41.6783 80.7477 41.8778Z" fill="#FE8A8B"/>
<path d="M85.9028 44.8163C84.8998 46.204 79.9836 45.6025 78.9922 45.452C78.0013 45.3015 77.3787 44.6758 77.4803 44.0443C77.6845 42.7713 84.1815 42.9965 84.7182 43.197C85.255 43.3981 85.9028 44.8163 85.9028 44.8163Z" fill="#FFC5C7"/>
<path d="M77.5161 44.3511C78.1876 45.0189 79.8026 45.3994 81.565 45.5414C83.0906 45.6646 83.9683 45.6056 84.1709 45.5877C82.318 45.883 79.6884 45.5572 78.9922 45.452C78.1649 45.3267 77.6224 44.8663 77.5161 44.3511Z" fill="#FE8A8B"/>
<path d="M62.8934 64.2534C73.3293 69.5642 75.0417 69.359 79.5242 71.7681C84.0067 74.1772 82.6727 99.5268 82.3886 103.435C82.1044 107.343 81.024 122.876 81.6197 127.084C82.2154 131.293 84.5351 146.926 85.5623 149.331C86.5895 151.736 88.5493 155.794 85.5181 158.199C82.487 160.604 76.0742 162.257 62.1504 161.355C48.2265 160.453 33.2176 151.886 32.5535 150.683C31.8894 149.481 39.2094 127.385 39.5157 123.176C39.8219 118.967 40.6529 115.811 41.096 113.857C41.5391 111.903 37.1097 102.734 36.4019 96.8714C35.6941 91.0091 29.325 74.8377 30.5327 71.8754C31.7405 68.9132 42.8336 65.6126 50.3873 61.8458C57.941 58.0784 62.8934 64.2534 62.8934 64.2534Z" fill="white"/>
<path d="M73.2404 70.8267C71.5222 76.4732 68.0243 81.5646 63.3691 85.1936C57.7173 83.8069 51.9707 81.3168 47.3425 77.7894C52.5144 81.5988 58.1551 84.8031 64.1943 86.9912C69.2951 82.8134 72.3221 77.3552 73.2404 70.8267Z" fill="#DCEDFF"/>
<path d="M71.1096 68.1387C69.1052 67.2835 66.5297 66.1037 62.8934 64.2534C62.8934 64.2534 57.941 58.0785 50.3868 61.8453C47.7656 63.1525 44.7192 64.4034 41.8069 65.6032C46.3068 73.259 53.5979 79.2476 62.0135 82.0956C66.4519 78.6009 69.643 73.5931 71.1096 68.1387Z" fill="#FFC5C7"/>
<path d="M32.5535 150.683C31.8894 149.481 39.2094 127.385 39.5157 123.176C39.8219 118.968 40.6529 115.811 41.096 113.857C41.5391 111.903 37.1097 102.734 36.4019 96.8714C36.2787 95.8526 35.9825 94.5186 35.5873 93.0004L40.2929 89.4956C43.0525 97.1929 44.7739 110.721 47.3893 114.028C50.0047 117.335 56.5201 118.688 56.5201 118.688C56.5201 118.688 50.0847 120.191 47.2788 119.59C47.2788 119.59 44.2829 131.464 44.2487 137.327C44.215 143.189 44.7591 152.057 44.8281 153.26C44.8539 153.709 44.7549 155.274 44.6207 157.058C37.8769 154.389 32.9287 151.362 32.5535 150.683Z" fill="#DCEDFF"/>
<path d="M51.5724 51.1669C51.465 57.4391 51.0509 61.748 49.6605 62.951C49.6605 62.951 52.0507 73.3595 61.5941 72.4707C64.8226 72.1702 64.5148 66.7589 62.8934 64.2534L63.8543 56.5598L51.5724 51.1669Z" fill="#FFC5C7"/>
<path d="M50.3873 61.8459C51.204 59.9219 51.4866 56.173 51.5724 51.1669L63.8543 56.5603L63.2381 61.4938C61.061 62.4705 50.3873 61.8459 50.3873 61.8459Z" fill="#FE8A8B"/>
<path d="M37.7928 97.5161C40.6666 91.8664 41.8169 82.6919 39.2231 77.8631C36.6292 73.0343 31.7336 71.2962 30.5327 71.8755C29.3313 72.4549 26.0792 79.9881 23.0254 83.4644C19.9716 86.9413 11.6322 96.6952 11.3796 97.5161C11.1271 98.3371 17.4072 104.963 29.2192 109.83C30.6253 110.409 37.7928 97.5161 37.7928 97.5161Z" fill="white"/>
<path d="M29.0314 101.897L27.1469 105.761C27.1469 105.761 36.4298 96.4547 40.284 89.5104C39.8167 92.4073 38.9479 95.2464 37.7933 97.5161C37.7933 97.5161 30.6259 110.409 29.2192 109.83C27.1979 108.997 25.3519 108.111 23.6595 107.214L29.0314 101.897Z" fill="#DCEDFF"/>
<path d="M64.5642 51.7295C63.9259 49.1435 63.9396 46.4992 63.7854 43.8548C63.6702 41.8777 63.5696 40.068 61.7752 38.8855C60.4638 38.0214 58.8193 37.8514 57.2763 38.0472C53.1295 38.5734 52.2376 42.6144 52.5549 46.4402C52.798 49.3688 53.9421 52.181 55.0777 54.8748C53.5526 54.8075 51.4703 54.0081 50.5599 52.7388C50.9688 54.4091 51.7434 55.9436 52.9548 57.125C48.5349 57.0487 44.4334 54.157 42.0921 50.2734C39.7514 46.3897 39.0094 41.6483 39.2589 37.0768C39.5546 31.6523 41.246 26.2152 44.6013 22.0384C51.3498 13.638 64.3511 12.6587 72.2684 19.8777C74.9901 22.3594 76.9646 25.6858 77.9518 29.2937C79.25 34.0362 79.2232 39.1249 78.2118 43.9222C77.7929 45.9087 77.6013 47.6279 77.404 49.6171C77.343 50.2339 76.5952 57.3939 77.0277 57.3682C74.236 57.5376 71.0291 56.974 69.1378 54.8401C69.9856 56.3057 70.7176 57.7176 71.5648 59.1832C68.0395 58.5964 65.4488 55.3116 64.5642 51.7295Z" fill="#372D5B"/>
<path d="M50.0773 41.9714C48.8301 41.2341 47.3309 40.8342 46.1742 42.0072C44.4702 43.7359 46.8909 51.7774 50.5657 49.8234C50.5657 49.8234 55.8865 57.264 59.7918 59.3684C63.697 61.4728 66.4792 60.4209 67.9417 58.9174C69.4041 57.4145 74.3913 51.2485 75.2885 44.7131C75.6085 42.3834 75.2654 37.7988 75.3364 36.8216C75.5553 33.8157 76.6941 31.3476 74.3229 28.988C71.9274 26.6046 68.6095 25.1627 65.232 25.0433C60.9784 24.8933 56.7264 26.8046 53.9094 29.9957C50.7978 33.5221 50.2584 37.5031 50.0773 41.9714Z" fill="#FFC5C7"/>
<path d="M46.7783 44.2053C47.0962 42.7318 48.3528 42.4419 49.2874 43.4686C50.2457 44.521 50.4068 47.8537 50.1605 48.3447C49.9142 48.8357 48.2681 48.801 47.9561 47.7837C47.644 46.7665 48.6028 46.1287 49.5279 46.4303C49.5279 46.4303 49.7863 44.9452 49.0301 43.989C48.2739 43.0328 47.4856 43.3986 47.2925 43.6443C47.0993 43.8896 46.7783 44.2053 46.7783 44.2053Z" fill="#FE8A8B"/>
<path d="M56.9495 37.6877C57.3053 37.3562 57.6826 37.0489 58.0783 36.7568C58.4767 36.4695 58.9019 36.2116 59.3534 36.0006C59.8012 35.7901 60.2701 35.5628 60.7664 35.5249C61.2579 35.4812 61.752 35.5212 62.2014 35.7143L62.1951 35.7817C61.9546 35.878 61.7257 35.9396 61.5005 36.0048L60.8379 36.1885C60.4069 36.3153 59.9602 36.3537 59.5234 36.499C59.0892 36.6437 58.6609 36.8284 58.2388 37.041C57.8136 37.2483 57.4026 37.4946 56.9874 37.7404L56.9495 37.6877Z" fill="#3F1751"/>
<path d="M73.5735 36.0006C73.1709 35.7875 72.7447 35.6317 72.3016 35.5386C71.8611 35.4396 71.4101 35.3896 70.9575 35.3786C70.5023 35.3691 70.0503 35.4623 69.6009 35.4586C69.1478 35.4602 68.6926 35.4738 68.1953 35.4239L68.1811 35.3591C68.6068 35.0502 69.0915 34.8834 69.5809 34.7882C70.074 34.6887 70.5676 34.7703 71.0433 34.8413C71.5222 34.9113 71.9879 35.0344 72.4252 35.2165C72.8589 35.4039 73.2714 35.6365 73.6151 35.9443L73.5735 36.0006Z" fill="#3F1751"/>
<path d="M61.4126 40.33C61.3957 39.6943 61.0758 39.2091 60.6974 39.2459C60.319 39.2833 60.0259 39.8285 60.0428 40.4647C60.0596 41.1004 60.3796 41.5856 60.7579 41.5488C61.1363 41.5114 61.4289 40.9657 61.4126 40.33Z" fill="#3F1751"/>
<path d="M71.4522 39.5274C71.4354 38.8917 71.1712 38.4008 70.8623 38.4313C70.5529 38.4613 70.3161 39.0017 70.3324 39.6374C70.3492 40.2731 70.6134 40.7641 70.9223 40.7336C71.2317 40.7031 71.4685 40.1631 71.4522 39.5274Z" fill="#3F1751"/>
<path d="M64.5563 46.5096C65.4267 47.1148 66.7097 47.1016 67.6569 46.478C67.5491 46.968 67.3302 47.4453 66.8534 47.6194C66.3771 47.7936 65.8504 47.7426 65.4125 47.5416C64.9747 47.34 64.8331 46.8995 64.5563 46.5096Z" fill="#FE8A8B"/>
<path d="M61.0726 50.2396C63.1697 50.2733 68.21 49.8865 69.8535 49.6528C69.2057 51.7767 67.5059 53.8749 65.1331 53.8759C62.996 53.8775 61.5846 52.1214 61.0726 50.2396Z" fill="#C31F2A"/>
<path d="M62.996 53.1823C63.8301 52.925 64.6784 53.0571 65.0194 53.1629C65.0194 53.1629 66.1282 52.3867 67.7396 52.8971C67.0065 53.4886 66.134 53.8759 65.1326 53.8764C64.308 53.8764 63.5949 53.6117 62.996 53.1823Z" fill="#FB8384"/>
<path d="M68.4311 51.4294C66.3087 52.0909 63.9922 51.9004 61.993 51.18C61.9799 50.8663 61.9556 50.5501 61.9314 50.2343C64.0038 50.1901 67.358 49.9391 69.1541 49.7391C68.9994 50.3264 68.7663 50.9005 68.4311 51.4294Z" fill="white"/>
<path d="M52.1744 35.0534C55.5939 34.9076 58.9866 34.1546 62.1467 32.8395C62.7482 31.4486 62.7687 30.2141 62.8587 28.7017C63.718 30.2783 64.229 32.0428 64.3169 33.8362C66.3082 33.7073 68.3095 33.5999 70.3008 33.471C70.8586 31.8928 70.926 30.2678 70.8376 28.5964C71.5106 30.1667 71.8485 32.1433 72.0784 33.8362C73.2804 33.4084 74.8038 34.032 76.0594 34.2572C77.6155 30.7903 77.514 24.5096 74.2218 21.8805C71.0154 19.3198 65.4462 18.6226 61.5283 19.1898C53.1927 20.3965 46.642 27.3176 47.1593 35.9396C47.4545 40.8584 49.9221 45.5098 53.4605 48.9393C51.3566 44.742 50.9388 39.5828 52.1744 35.0534Z" fill="#372D5B"/>
</g>
<path d="M156.308 64.7735C159.362 53.021 152.311 41.0178 140.558 37.9636C128.805 34.9095 116.802 41.961 113.748 53.7136C110.694 65.4662 117.745 77.4694 129.498 80.5235C141.251 83.5776 153.254 76.5261 156.308 64.7735Z" fill="#E67471"/>
<path d="M124.191 67.846H145.886C146.882 67.846 147.689 67.0387 147.689 66.0431V52.4345C147.689 51.4388 146.882 50.6316 145.886 50.6316H124.191C123.195 50.6316 122.388 51.4388 122.388 52.4345V66.0436C122.388 67.0387 123.195 67.846 124.191 67.846Z" fill="#DBE9FF"/>
<path d="M124.191 67.8461H145.886C146.882 67.8461 147.689 67.0389 147.689 66.0432L135.038 58.088L122.388 66.0432C122.388 67.0389 123.195 67.8461 124.191 67.8461Z" fill="#CDDCF4"/>
<path d="M124.191 50.6312H145.886C146.882 50.6312 147.689 51.4384 147.689 52.4341L135.038 60.3893L122.388 52.4341C122.388 51.4384 123.195 50.6312 124.191 50.6312Z" fill="#5470D3"/>
<path d="M295.888 112.304C307.718 109.563 315.086 97.7506 312.346 85.9203C309.605 74.09 297.793 66.7215 285.962 69.4623C274.132 72.2031 266.763 84.0153 269.504 95.8456C272.245 107.676 284.057 115.044 295.888 112.304Z" fill="#E67471"/>
<path d="M297.091 86.5792H294.881C294.681 85.7073 294.337 84.8921 293.875 84.1564L295.439 82.5919C295.653 82.3782 295.653 82.0325 295.439 81.8194L293.701 80.0807C293.487 79.8676 293.141 79.8676 292.928 80.0807L291.364 81.6452C290.628 81.1837 289.813 80.8395 288.941 80.6395V78.4288C288.941 78.1273 288.696 77.8826 288.395 77.8826H285.936C285.635 77.8826 285.39 78.1273 285.39 78.4288V80.6395C284.518 80.8395 283.703 81.1837 282.967 81.6452L281.403 80.0807C281.189 79.8676 280.843 79.8676 280.63 80.0807L278.891 81.8194C278.678 82.0325 278.678 82.3788 278.891 82.5919L280.456 84.1564C279.994 84.8921 279.65 85.7073 279.45 86.5792H277.239C276.938 86.5792 276.693 86.8239 276.693 87.1255V89.5841C276.693 89.8856 276.938 90.1303 277.239 90.1303H279.45C279.65 91.0023 279.994 91.8174 280.456 92.5531L278.891 94.1176C278.678 94.3313 278.678 94.677 278.891 94.8902L280.63 96.6289C280.844 96.8425 281.189 96.8425 281.403 96.6289L282.967 95.0643C283.703 95.5259 284.518 95.87 285.39 96.07V98.2807C285.39 98.5823 285.635 98.827 285.936 98.827H288.395C288.697 98.827 288.941 98.5823 288.941 98.2807V96.07C289.813 95.87 290.628 95.5259 291.364 95.0643L292.928 96.6289C293.142 96.8425 293.488 96.8425 293.701 96.6289L295.439 94.8902C295.653 94.6765 295.653 94.3308 295.439 94.1176L293.875 92.5531C294.337 91.8174 294.681 91.0023 294.881 90.1303H297.091C297.393 90.1303 297.638 89.8856 297.638 89.5841V87.1255C297.638 86.8239 297.393 86.5792 297.091 86.5792ZM287.165 91.748C285.291 91.748 283.772 90.2292 283.772 88.3553C283.772 86.4819 285.291 84.9626 287.165 84.9626C289.038 84.9626 290.558 86.4814 290.558 88.3553C290.558 90.2287 289.039 91.748 287.165 91.748Z" fill="#DBE9FF"/>
<path d="M287.165 83.6328C284.557 83.6328 282.442 85.7473 282.442 88.3553C282.442 90.9634 284.557 93.0778 287.165 93.0778C289.773 93.0778 291.887 90.9634 291.887 88.3553C291.887 85.7473 289.773 83.6328 287.165 83.6328ZM287.165 91.2391C285.572 91.2391 284.281 89.9482 284.281 88.3553C284.281 86.7624 285.572 85.4715 287.165 85.4715C288.757 85.4715 290.049 86.7624 290.049 88.3553C290.049 89.9482 288.758 91.2391 287.165 91.2391Z" fill="#5470D3"/>
<path d="M306.533 96.2636H305.404C305.302 95.8179 305.126 95.4017 304.89 95.0259L305.69 94.2266C305.799 94.1176 305.799 93.9408 305.69 93.8319L304.801 92.9436C304.692 92.8346 304.516 92.8346 304.407 92.9436L303.607 93.7429C303.232 93.5072 302.815 93.3314 302.37 93.2293V92.1C302.37 91.9458 302.244 91.8211 302.091 91.8211H300.835C300.68 91.8211 300.556 91.9458 300.556 92.1V93.2293C300.11 93.3314 299.694 93.5072 299.318 93.7429L298.519 92.9436C298.41 92.8346 298.233 92.8346 298.124 92.9436L297.236 93.8319C297.127 93.9408 297.127 94.1176 297.236 94.2266L298.035 95.0259C297.799 95.4017 297.623 95.8184 297.521 96.2636H296.392C296.238 96.2636 296.113 96.3889 296.113 96.5425V97.7987C296.113 97.9529 296.238 98.0776 296.392 98.0776H297.521C297.623 98.5233 297.799 98.9396 298.035 99.3153L297.236 100.115C297.127 100.224 297.127 100.4 297.236 100.509L298.124 101.398C298.233 101.507 298.41 101.507 298.519 101.398L299.318 100.598C299.694 100.834 300.11 101.01 300.556 101.112V102.241C300.556 102.395 300.68 102.52 300.835 102.52H302.091C302.245 102.52 302.37 102.395 302.37 102.241V101.112C302.815 101.01 303.232 100.834 303.607 100.598L304.407 101.398C304.516 101.507 304.692 101.507 304.801 101.398L305.69 100.509C305.799 100.4 305.799 100.224 305.69 100.115L304.89 99.3153C305.126 98.9396 305.302 98.5233 305.404 98.0776H306.533C306.687 98.0776 306.812 97.9529 306.812 97.7987V96.5425C306.813 96.3889 306.688 96.2636 306.533 96.2636ZM301.462 98.9043C300.505 98.9043 299.729 98.1281 299.729 97.1714C299.729 96.2142 300.505 95.4385 301.462 95.4385C302.42 95.4385 303.195 96.2147 303.195 97.1714C303.196 98.1281 302.42 98.9043 301.462 98.9043Z" fill="#DBE9FF"/>
<path d="M301.462 94.7586C300.13 94.7586 299.05 95.839 299.05 97.1714C299.05 98.5039 300.13 99.5837 301.462 99.5837C302.795 99.5837 303.875 98.5039 303.875 97.1714C303.875 95.8384 302.795 94.7586 301.462 94.7586ZM301.462 98.6444C300.649 98.6444 299.989 97.985 299.989 97.1714C299.989 96.3578 300.649 95.6985 301.462 95.6985C302.276 95.6985 302.935 96.3578 302.935 97.1714C302.936 97.9845 302.276 98.6444 301.462 98.6444Z" fill="#5470D3"/>
<path d="M199.936 49.0045C211.203 44.4738 216.663 31.6673 212.132 20.4004C207.602 9.13359 194.795 3.67293 183.528 8.20371C172.262 12.7345 166.801 25.541 171.332 36.8078C175.862 48.0747 188.669 53.5353 199.936 49.0045Z" fill="#E67471"/>
<path d="M180.817 39.8996H202.642C203.602 39.8996 204.38 39.1213 204.38 38.1609V20.004C204.38 19.0436 203.602 18.2653 202.642 18.2653H180.817C179.857 18.2653 179.079 19.0436 179.079 20.004V38.1614C179.079 39.1213 179.857 39.8996 180.817 39.8996Z" fill="white"/>
<path d="M179.079 22.793H204.38V20.004C204.38 19.0436 203.602 18.2653 202.642 18.2653H180.817C179.857 18.2653 179.079 19.0436 179.079 20.004V22.793Z" fill="#5470D3"/>
<path d="M198.336 19.2309C198.619 19.2309 198.849 19.0009 198.849 18.7178V17.8132C198.849 17.5301 198.619 17.3001 198.336 17.3001C198.053 17.3001 197.823 17.5301 197.823 17.8132V18.7178C197.823 19.0009 198.053 19.2309 198.336 19.2309Z" fill="white"/>
<path d="M199.803 19.2309C200.087 19.2309 200.316 19.0009 200.316 18.7178V17.8132C200.316 17.5301 200.087 17.3001 199.803 17.3001C199.52 17.3001 199.29 17.5301 199.29 17.8132V18.7178C199.29 19.0009 199.519 19.2309 199.803 19.2309Z" fill="white"/>
<path d="M183.656 19.2309C183.939 19.2309 184.169 19.0009 184.169 18.7178V17.8132C184.169 17.5301 183.939 17.3001 183.656 17.3001C183.373 17.3001 183.143 17.5301 183.143 17.8132V18.7178C183.143 19.0009 183.373 19.2309 183.656 19.2309Z" fill="white"/>
<path d="M185.122 19.2309C185.406 19.2309 185.636 19.0009 185.636 18.7178V17.8132C185.636 17.5301 185.406 17.3001 185.122 17.3001C184.839 17.3001 184.609 17.5301 184.609 17.8132V18.7178C184.609 19.0009 184.839 19.2309 185.122 19.2309Z" fill="white"/>
<path d="M193.326 27.6766H194.684C194.914 27.6766 195.101 27.4898 195.101 27.2593V25.9021C195.101 25.6716 194.914 25.4848 194.684 25.4848H193.326C193.096 25.4848 192.909 25.6716 192.909 25.9021V27.2593C192.909 27.4903 193.096 27.6766 193.326 27.6766Z" fill="#DBE9FF"/>
<path d="M188.11 27.6766H189.468C189.699 27.6766 189.885 27.4898 189.885 27.2593V25.9016C189.885 25.6711 189.699 25.4843 189.468 25.4843H188.111C187.88 25.4843 187.694 25.6711 187.694 25.9016V27.2593C187.694 27.4903 187.88 27.6766 188.11 27.6766Z" fill="#DBE9FF"/>
<path d="M182.895 27.6766H184.253C184.484 27.6766 184.67 27.4898 184.67 27.2593V25.9016C184.67 25.6711 184.484 25.4843 184.253 25.4843H182.895C182.665 25.4843 182.478 25.6711 182.478 25.9016V27.2593C182.478 27.4903 182.665 27.6766 182.895 27.6766Z" fill="#DBE9FF"/>
<path d="M198.542 32.1681H199.899C200.13 32.1681 200.317 31.9813 200.317 31.7508V30.3931C200.317 30.1626 200.13 29.9758 199.899 29.9758H198.542C198.312 29.9758 198.125 30.1626 198.125 30.3931V31.7503C198.124 31.9813 198.311 32.1681 198.542 32.1681Z" fill="#DBE9FF"/>
<path d="M193.326 32.1681H194.684C194.914 32.1681 195.101 31.9813 195.101 31.7508V30.3931C195.101 30.1626 194.914 29.9758 194.684 29.9758H193.326C193.096 29.9758 192.909 30.1626 192.909 30.3931V31.7503C192.909 31.9813 193.096 32.1681 193.326 32.1681Z" fill="#DBE9FF"/>
<path d="M188.11 32.1681H189.468C189.698 32.1681 189.885 31.9813 189.885 31.7508V30.3931C189.885 30.1626 189.698 29.9758 189.468 29.9758H188.11C187.879 29.9758 187.693 30.1626 187.693 30.3931V31.7508C187.694 31.9813 187.88 32.1681 188.11 32.1681Z" fill="#DBE9FF"/>
<path d="M182.895 32.1681H184.253C184.484 32.1681 184.67 31.9813 184.67 31.7508V30.3931C184.67 30.1626 184.484 29.9758 184.253 29.9758H182.895C182.665 29.9758 182.478 30.1626 182.478 30.3931V31.7508C182.478 31.9813 182.665 32.1681 182.895 32.1681Z" fill="#DBE9FF"/>
<path d="M198.542 36.659H199.899C200.13 36.659 200.317 36.4722 200.317 36.2417V34.884C200.317 34.6535 200.13 34.4667 199.899 34.4667H198.542C198.312 34.4667 198.125 34.6535 198.125 34.884V36.2417C198.124 36.4722 198.311 36.659 198.542 36.659Z" fill="#DBE9FF"/>
<path d="M193.326 36.659H194.684C194.914 36.659 195.101 36.4722 195.101 36.2417V34.884C195.101 34.6535 194.914 34.4667 194.684 34.4667H193.326C193.096 34.4667 192.909 34.6535 192.909 34.884V36.2417C192.909 36.4722 193.096 36.659 193.326 36.659Z" fill="#DBE9FF"/>
<path d="M188.11 36.659H189.468C189.698 36.659 189.885 36.4722 189.885 36.2417V34.884C189.885 34.6535 189.698 34.4667 189.468 34.4667H188.11C187.88 34.4667 187.693 34.6535 187.693 34.884V36.2417C187.694 36.4722 187.88 36.659 188.11 36.659Z" fill="#DBE9FF"/>
<path d="M270.219 55.4487C278.806 46.862 278.806 32.9401 270.219 24.3534C261.632 15.7666 247.71 15.7666 239.123 24.3534C230.537 32.9401 230.537 46.862 239.123 55.4487C247.71 64.0355 261.632 64.0355 270.219 55.4487Z" fill="#E67471"/>
<path d="M265.32 50.55C271.201 44.6688 271.201 35.1334 265.32 29.2522C259.439 23.371 249.903 23.371 244.022 29.2522C238.141 35.1335 238.141 44.6688 244.022 50.55C249.903 56.4313 259.439 56.4313 265.32 50.55Z" fill="white"/>
<path d="M254.674 24.8396C246.356 24.8396 239.614 31.5823 239.614 39.8996C239.614 48.2168 246.356 54.9596 254.674 54.9596C262.991 54.9596 269.734 48.2168 269.734 39.8996C269.734 31.5823 262.991 24.8396 254.674 24.8396ZM255.936 52.7309V50.6744C255.936 50.2918 255.626 49.9818 255.244 49.9818H254.103C253.72 49.9818 253.41 50.2918 253.41 50.6744V52.7309C247.298 52.1368 242.436 47.2749 241.842 41.1626H243.898C244.281 41.1626 244.591 40.8526 244.591 40.47V39.3297C244.591 38.9471 244.281 38.6371 243.898 38.6371H241.842C242.436 32.5248 247.298 27.6629 253.41 27.0688V29.1253C253.41 29.5079 253.72 29.8178 254.103 29.8178H255.244C255.626 29.8178 255.936 29.5079 255.936 29.1253V27.0688C262.048 27.6629 266.91 32.5248 267.505 38.6371H265.448C265.065 38.6371 264.755 38.9471 264.755 39.3297V40.47C264.755 40.8526 265.065 41.1626 265.448 41.1626H267.505C266.91 47.2749 262.048 52.1368 255.936 52.7309Z" fill="#5470D3"/>
<path d="M248.902 52.7225V51.4147L253.813 46.0383C254.39 45.4086 254.864 44.8613 255.237 44.3963C255.61 43.9265 255.886 43.4857 256.066 43.074C256.25 42.6574 256.342 42.2215 256.342 41.7662C256.342 41.2431 256.216 40.7902 255.964 40.4075C255.717 40.0249 255.378 39.7294 254.947 39.5212C254.516 39.3129 254.031 39.2087 253.494 39.2087C252.922 39.2087 252.423 39.3274 251.997 39.5647C251.575 39.7972 251.249 40.1242 251.016 40.5456C250.788 40.967 250.675 41.461 250.675 42.0277H248.96C248.96 41.1559 249.161 40.3906 249.563 39.7319C249.965 39.0731 250.512 38.5597 251.205 38.1916C251.902 37.8234 252.685 37.6394 253.552 37.6394C254.424 37.6394 255.196 37.8234 255.869 38.1916C256.543 38.5597 257.071 39.0562 257.453 39.681C257.836 40.3058 258.027 41.0009 258.027 41.7662C258.027 42.3135 257.928 42.8487 257.729 43.3719C257.536 43.8901 257.197 44.4689 256.712 45.1083C256.233 45.7428 255.567 46.5178 254.714 47.4333L251.372 51.0079V51.1241H258.289V52.7225H248.902ZM248.553 74.671V73.1889L255.092 62.8428H256.167V65.1387H255.441L250.5 72.9564V73.0726H259.306V74.671H248.553ZM255.557 77.7225V74.2206V73.5304V62.8428H257.272V77.7225H255.557ZM267.318 62.1453L262.523 79.9603H260.953L265.749 62.1453H267.318ZM249.367 102.723L256.022 89.5575V89.4412H248.35V87.8428H257.882V89.5284L251.256 102.723H249.367Z" fill="#D1C8D9"/>
</svg>
